<?xml version="1.0" encoding="UTF-8" standalone="no"?>
<!DOCTYPE svg PUBLIC "-//W3C//DTD SVG 1.1//EN"
 "http://www.w3.org/Graphics/SVG/1.1/DTD/svg11.dtd">
<!-- Generated by graphviz version 2.47.2 (20210527.0053)
 -->
<!-- Title: org.example.util.validator.AbstractValidator Pages: 1 -->
<svg width="1027pt" height="380pt"
 viewBox="0.00 0.00 1027.00 380.00" xmlns="http://www.w3.org/2000/svg" xmlns:xlink="http://www.w3.org/1999/xlink">
<g id="graph0" class="graph" transform="scale(1 1) rotate(0) translate(4 376)">
<title>org.example.util.validator.AbstractValidator</title>
<polygon fill="white" stroke="transparent" points="-4,4 -4,-376 1023,-376 1023,4 -4,4"/>
<!-- Node1 -->
<g id="node1" class="node">
<title>Node1</title>
<g id="a_node1"><a xlink:title="Questa interfaccia permette la validazione di una Stringa con l&#39; elemento oggetto della classe.">
<polygon fill="#bfbfbf" stroke="black" points="432,-149.5 432,-371.5 583,-371.5 583,-149.5 432,-149.5"/>
<text text-anchor="start" x="440" y="-359.5" font-family="Helvetica,sans-Serif" font-size="10.00">org.example.util.validator.</text>
<text text-anchor="middle" x="507.5" y="-348.5" font-family="Helvetica,sans-Serif" font-size="10.00">AbstractValidator</text>
<polyline fill="none" stroke="black" points="432,-341.5 583,-341.5 "/>
<text text-anchor="start" x="440" y="-329.5" font-family="Helvetica,sans-Serif" font-size="10.00">&#45; String nameValidator</text>
<text text-anchor="start" x="440" y="-318.5" font-family="Helvetica,sans-Serif" font-size="10.00">&#45; String pattern</text>
<text text-anchor="start" x="440" y="-307.5" font-family="Helvetica,sans-Serif" font-size="10.00">&#45; String validationRules</text>
<polyline fill="none" stroke="black" points="432,-300.5 583,-300.5 "/>
<text text-anchor="start" x="440" y="-288.5" font-family="Helvetica,sans-Serif" font-size="10.00">+ String getPattern()</text>
<text text-anchor="start" x="440" y="-277.5" font-family="Helvetica,sans-Serif" font-size="10.00">+ String getRulesOfValidation()</text>
<text text-anchor="start" x="440" y="-266.5" font-family="Helvetica,sans-Serif" font-size="10.00">+ String getValidationRules()</text>
<text text-anchor="start" x="440" y="-255.5" font-family="Helvetica,sans-Serif" font-size="10.00">+ String getValidatorName()</text>
<text text-anchor="start" x="440" y="-244.5" font-family="Helvetica,sans-Serif" font-size="10.00">+ boolean isValid(String</text>
<text text-anchor="start" x="440" y="-233.5" font-family="Helvetica,sans-Serif" font-size="10.00"> string)</text>
<text text-anchor="start" x="440" y="-222.5" font-family="Helvetica,sans-Serif" font-size="10.00">+ String request()</text>
<text text-anchor="start" x="440" y="-211.5" font-family="Helvetica,sans-Serif" font-size="10.00">+ void setNameValidator</text>
<text text-anchor="start" x="440" y="-200.5" font-family="Helvetica,sans-Serif" font-size="10.00">(String nameValidator)</text>
<text text-anchor="start" x="440" y="-189.5" font-family="Helvetica,sans-Serif" font-size="10.00">+ void setPattern(String</text>
<text text-anchor="start" x="440" y="-178.5" font-family="Helvetica,sans-Serif" font-size="10.00"> pattern)</text>
<text text-anchor="start" x="440" y="-167.5" font-family="Helvetica,sans-Serif" font-size="10.00">+ void setValidationRules</text>
<text text-anchor="start" x="440" y="-156.5" font-family="Helvetica,sans-Serif" font-size="10.00">(String validationRules)</text>
</a>
</g>
</g>
<!-- Node2 -->
<g id="node2" class="node">
<title>Node2</title>
<g id="a_node2"><a xlink:href="../../db/db6/a00074.html" target="_top" xlink:title="The type Validate email.">
<polygon fill="white" stroke="black" points="0,-6 0,-107 127,-107 127,-6 0,-6"/>
<text text-anchor="start" x="8" y="-95" font-family="Helvetica,sans-Serif" font-size="10.00">org.example.util.validator.</text>
<text text-anchor="middle" x="63.5" y="-84" font-family="Helvetica,sans-Serif" font-size="10.00">ValidateEmail</text>
<polyline fill="none" stroke="black" points="0,-77 127,-77 "/>
<text text-anchor="start" x="8" y="-65" font-family="Helvetica,sans-Serif" font-size="10.00">&#45; static ValidateEmail</text>
<text text-anchor="start" x="8" y="-54" font-family="Helvetica,sans-Serif" font-size="10.00"> instance</text>
<polyline fill="none" stroke="black" points="0,-47 127,-47 "/>
<text text-anchor="start" x="8" y="-35" font-family="Helvetica,sans-Serif" font-size="10.00">+ static ValidateEmail</text>
<text text-anchor="start" x="8" y="-24" font-family="Helvetica,sans-Serif" font-size="10.00"> getInstance()</text>
<text text-anchor="start" x="8" y="-13" font-family="Helvetica,sans-Serif" font-size="10.00">&#45; ValidateEmail()</text>
</a>
</g>
</g>
<!-- Node1&#45;&gt;Node2 -->
<g id="edge1" class="edge">
<title>Node1&#45;&gt;Node2</title>
<path fill="none" stroke="midnightblue" d="M422.27,-233.57C344.81,-208.26 228.72,-165.87 135.5,-113 132.21,-111.13 128.9,-109.13 125.6,-107.02"/>
<polygon fill="none" stroke="midnightblue" points="421.4,-236.97 431.99,-236.73 423.56,-230.31 421.4,-236.97"/>
</g>
<!-- Node3 -->
<g id="node3" class="node">
<title>Node3</title>
<g id="a_node3"><a xlink:href="../../d9/da4/a00078.html" target="_top" xlink:title="Questa classe permette di validareun oggetto.">
<polygon fill="white" stroke="black" points="145,-0.5 145,-112.5 272,-112.5 272,-0.5 145,-0.5"/>
<text text-anchor="start" x="153" y="-100.5" font-family="Helvetica,sans-Serif" font-size="10.00">org.example.util.validator.</text>
<text text-anchor="middle" x="208.5" y="-89.5" font-family="Helvetica,sans-Serif" font-size="10.00">ValidateGeneric</text>
<polyline fill="none" stroke="black" points="145,-82.5 272,-82.5 "/>
<text text-anchor="middle" x="208.5" y="-70.5" font-family="Helvetica,sans-Serif" font-size="10.00"> </text>
<polyline fill="none" stroke="black" points="145,-63.5 272,-63.5 "/>
<text text-anchor="start" x="153" y="-51.5" font-family="Helvetica,sans-Serif" font-size="10.00">+ void setValidationRules</text>
<text text-anchor="start" x="153" y="-40.5" font-family="Helvetica,sans-Serif" font-size="10.00">(String rules)</text>
<text text-anchor="start" x="153" y="-29.5" font-family="Helvetica,sans-Serif" font-size="10.00">+ ValidateGeneric(String</text>
<text text-anchor="start" x="153" y="-18.5" font-family="Helvetica,sans-Serif" font-size="10.00"> nameValidator, String</text>
<text text-anchor="start" x="153" y="-7.5" font-family="Helvetica,sans-Serif" font-size="10.00"> patternValidator)</text>
</a>
</g>
</g>
<!-- Node1&#45;&gt;Node3 -->
<g id="edge2" class="edge">
<title>Node1&#45;&gt;Node3</title>
<path fill="none" stroke="midnightblue" d="M423.31,-207.52C380.05,-180.22 326.83,-145.72 280.5,-113 277.79,-111.09 275.05,-109.12 272.28,-107.11"/>
<polygon fill="none" stroke="midnightblue" points="421.49,-210.51 431.82,-212.88 425.22,-204.59 421.49,-210.51"/>
</g>
<!-- Node4 -->
<g id="node4" class="node">
<title>Node4</title>
<g id="a_node4"><a xlink:href="../../d4/d63/a00082.html" target="_top" xlink:title="The type Validate name.">
<polygon fill="white" stroke="black" points="290,-6 290,-107 417,-107 417,-6 290,-6"/>
<text text-anchor="start" x="298" y="-95" font-family="Helvetica,sans-Serif" font-size="10.00">org.example.util.validator.</text>
<text text-anchor="middle" x="353.5" y="-84" font-family="Helvetica,sans-Serif" font-size="10.00">ValidateName</text>
<polyline fill="none" stroke="black" points="290,-77 417,-77 "/>
<text text-anchor="start" x="298" y="-65" font-family="Helvetica,sans-Serif" font-size="10.00">&#45; static ValidateName</text>
<text text-anchor="start" x="298" y="-54" font-family="Helvetica,sans-Serif" font-size="10.00"> instance</text>
<polyline fill="none" stroke="black" points="290,-47 417,-47 "/>
<text text-anchor="start" x="298" y="-35" font-family="Helvetica,sans-Serif" font-size="10.00">+ static ValidateName</text>
<text text-anchor="start" x="298" y="-24" font-family="Helvetica,sans-Serif" font-size="10.00"> getInstance()</text>
<text text-anchor="start" x="298" y="-13" font-family="Helvetica,sans-Serif" font-size="10.00">&#45; ValidateName()</text>
</a>
</g>
</g>
<!-- Node1&#45;&gt;Node4 -->
<g id="edge3" class="edge">
<title>Node1&#45;&gt;Node4</title>
<path fill="none" stroke="midnightblue" d="M425.59,-152.06C413.63,-136.37 401.82,-120.88 391.34,-107.13"/>
<polygon fill="none" stroke="midnightblue" points="423.01,-154.44 431.85,-160.28 428.57,-150.2 423.01,-154.44"/>
</g>
<!-- Node5 -->
<g id="node5" class="node">
<title>Node5</title>
<g id="a_node5"><a xlink:href="../../da/d2a/a00086.html" target="_top" xlink:title="The type Validate name project.">
<polygon fill="white" stroke="black" points="435.5,-6 435.5,-107 579.5,-107 579.5,-6 435.5,-6"/>
<text text-anchor="start" x="443.5" y="-95" font-family="Helvetica,sans-Serif" font-size="10.00">org.example.util.validator.</text>
<text text-anchor="middle" x="507.5" y="-84" font-family="Helvetica,sans-Serif" font-size="10.00">ValidateNameProject</text>
<polyline fill="none" stroke="black" points="435.5,-77 579.5,-77 "/>
<text text-anchor="start" x="443.5" y="-65" font-family="Helvetica,sans-Serif" font-size="10.00">&#45; static ValidateNameProject</text>
<text text-anchor="start" x="443.5" y="-54" font-family="Helvetica,sans-Serif" font-size="10.00"> instance</text>
<polyline fill="none" stroke="black" points="435.5,-47 579.5,-47 "/>
<text text-anchor="start" x="443.5" y="-35" font-family="Helvetica,sans-Serif" font-size="10.00">+ static ValidateNameProject</text>
<text text-anchor="start" x="443.5" y="-24" font-family="Helvetica,sans-Serif" font-size="10.00"> getInstance()</text>
<text text-anchor="start" x="443.5" y="-13" font-family="Helvetica,sans-Serif" font-size="10.00">&#45; ValidateNameProject()</text>
</a>
</g>
</g>
<!-- Node1&#45;&gt;Node5 -->
<g id="edge4" class="edge">
<title>Node1&#45;&gt;Node5</title>
<path fill="none" stroke="midnightblue" d="M507.5,-139.01C507.5,-127.85 507.5,-117.02 507.5,-107.09"/>
<polygon fill="none" stroke="midnightblue" points="504,-139.34 507.5,-149.34 511,-139.34 504,-139.34"/>
</g>
<!-- Node6 -->
<g id="node6" class="node">
<title>Node6</title>
<g id="a_node6"><a xlink:href="../../d9/dec/a00090.html" target="_top" xlink:title="The type Validate number.">
<polygon fill="white" stroke="black" points="598,-6 598,-107 725,-107 725,-6 598,-6"/>
<text text-anchor="start" x="606" y="-95" font-family="Helvetica,sans-Serif" font-size="10.00">org.example.util.validator.</text>
<text text-anchor="middle" x="661.5" y="-84" font-family="Helvetica,sans-Serif" font-size="10.00">ValidateNumber</text>
<polyline fill="none" stroke="black" points="598,-77 725,-77 "/>
<text text-anchor="start" x="606" y="-65" font-family="Helvetica,sans-Serif" font-size="10.00">&#45; static ValidateNumber</text>
<text text-anchor="start" x="606" y="-54" font-family="Helvetica,sans-Serif" font-size="10.00"> instance</text>
<polyline fill="none" stroke="black" points="598,-47 725,-47 "/>
<text text-anchor="start" x="606" y="-35" font-family="Helvetica,sans-Serif" font-size="10.00">+ static ValidateNumber</text>
<text text-anchor="start" x="606" y="-24" font-family="Helvetica,sans-Serif" font-size="10.00"> getInstance()</text>
<text text-anchor="start" x="606" y="-13" font-family="Helvetica,sans-Serif" font-size="10.00">&#45; ValidateNumber()</text>
</a>
</g>
</g>
<!-- Node1&#45;&gt;Node6 -->
<g id="edge5" class="edge">
<title>Node1&#45;&gt;Node6</title>
<path fill="none" stroke="midnightblue" d="M589.41,-152.06C601.37,-136.37 613.18,-120.88 623.66,-107.13"/>
<polygon fill="none" stroke="midnightblue" points="586.43,-150.2 583.15,-160.28 591.99,-154.44 586.43,-150.2"/>
</g>
<!-- Node7 -->
<g id="node7" class="node">
<title>Node7</title>
<g id="a_node7"><a xlink:href="../../dc/d54/a00094.html" target="_top" xlink:title="The type Validate password.">
<polygon fill="white" stroke="black" points="743,-6 743,-107 874,-107 874,-6 743,-6"/>
<text text-anchor="start" x="751" y="-95" font-family="Helvetica,sans-Serif" font-size="10.00">org.example.util.validator.</text>
<text text-anchor="middle" x="808.5" y="-84" font-family="Helvetica,sans-Serif" font-size="10.00">ValidatePassword</text>
<polyline fill="none" stroke="black" points="743,-77 874,-77 "/>
<text text-anchor="start" x="751" y="-65" font-family="Helvetica,sans-Serif" font-size="10.00">&#45; static ValidatePassword</text>
<text text-anchor="start" x="751" y="-54" font-family="Helvetica,sans-Serif" font-size="10.00"> instance</text>
<polyline fill="none" stroke="black" points="743,-47 874,-47 "/>
<text text-anchor="start" x="751" y="-35" font-family="Helvetica,sans-Serif" font-size="10.00">+ static ValidatePassword</text>
<text text-anchor="start" x="751" y="-24" font-family="Helvetica,sans-Serif" font-size="10.00"> getInstance()</text>
<text text-anchor="start" x="751" y="-13" font-family="Helvetica,sans-Serif" font-size="10.00">&#45; ValidatePassword()</text>
</a>
</g>
</g>
<!-- Node1&#45;&gt;Node7 -->
<g id="edge6" class="edge">
<title>Node1&#45;&gt;Node7</title>
<path fill="none" stroke="midnightblue" d="M591.51,-207.26C634.72,-179.9 687.95,-145.42 734.5,-113 737.27,-111.07 740.08,-109.09 742.91,-107.07"/>
<polygon fill="none" stroke="midnightblue" points="589.59,-204.34 583.01,-212.64 593.33,-210.25 589.59,-204.34"/>
</g>
<!-- Node8 -->
<g id="node8" class="node">
<title>Node8</title>
<g id="a_node8"><a xlink:href="../../d1/d44/a00098.html" target="_top" xlink:title="The type Validate version.">
<polygon fill="white" stroke="black" points="892,-6 892,-107 1019,-107 1019,-6 892,-6"/>
<text text-anchor="start" x="900" y="-95" font-family="Helvetica,sans-Serif" font-size="10.00">org.example.util.validator.</text>
<text text-anchor="middle" x="955.5" y="-84" font-family="Helvetica,sans-Serif" font-size="10.00">ValidateVersion</text>
<polyline fill="none" stroke="black" points="892,-77 1019,-77 "/>
<text text-anchor="start" x="900" y="-65" font-family="Helvetica,sans-Serif" font-size="10.00">&#45; static ValidateVersion</text>
<text text-anchor="start" x="900" y="-54" font-family="Helvetica,sans-Serif" font-size="10.00"> instance</text>
<polyline fill="none" stroke="black" points="892,-47 1019,-47 "/>
<text text-anchor="start" x="900" y="-35" font-family="Helvetica,sans-Serif" font-size="10.00">+ static ValidateVersion</text>
<text text-anchor="start" x="900" y="-24" font-family="Helvetica,sans-Serif" font-size="10.00"> getInstance()</text>
<text text-anchor="start" x="900" y="-13" font-family="Helvetica,sans-Serif" font-size="10.00">&#45; ValidateVersion()</text>
</a>
</g>
</g>
<!-- Node1&#45;&gt;Node8 -->
<g id="edge7" class="edge">
<title>Node1&#45;&gt;Node8</title>
<path fill="none" stroke="midnightblue" d="M592.93,-233.96C671.24,-208.77 789.02,-166.36 883.5,-113 886.8,-111.14 890.11,-109.14 893.41,-107.04"/>
<polygon fill="none" stroke="midnightblue" points="591.57,-230.72 583.11,-237.1 593.7,-237.39 591.57,-230.72"/>
</g>
</g>
</svg>
