<?xml version="1.0" encoding="UTF-8" standalone="no"?>
<!DOCTYPE svg PUBLIC "-//W3C//DTD SVG 1.1//EN"
 "http://www.w3.org/Graphics/SVG/1.1/DTD/svg11.dtd">
<!-- Generated by graphviz version 2.47.2 (20210527.0053)
 -->
<!-- Title: org.example.util.console.Output.printnlLine Pages: 1 -->
<svg width="457pt" height="110pt"
 viewBox="0.00 0.00 457.00 110.00" xmlns="http://www.w3.org/2000/svg" xmlns:xlink="http://www.w3.org/1999/xlink">
<g id="graph0" class="graph" transform="scale(1 1) rotate(0) translate(4 106)">
<title>org.example.util.console.Output.printnlLine</title>
<polygon fill="white" stroke="transparent" points="-4,4 -4,-106 453,-106 453,4 -4,4"/>
<!-- Node1 -->
<g id="node1" class="node">
<title>Node1</title>
<g id="a_node1"><a xlink:title="Stampa una stringa con lineSeparator() finale.">
<polygon fill="#bfbfbf" stroke="black" points="324,-22.5 324,-52.5 449,-52.5 449,-22.5 324,-22.5"/>
<text text-anchor="start" x="332" y="-40.5" font-family="Helvetica,sans-Serif" font-size="10.00">org.example.util.console.</text>
<text text-anchor="middle" x="386.5" y="-29.5" font-family="Helvetica,sans-Serif" font-size="10.00">Output.printnlLine</text>
</a>
</g>
</g>
<!-- Node2 -->
<g id="node2" class="node">
<title>Node2</title>
<g id="a_node2"><a xlink:href="../../d4/d31/a00069_ac8e9771ff1494e314bcd6bc6a46f2939.html#ac8e9771ff1494e314bcd6bc6a46f2939" target="_top" xlink:title="Stampa la stringa &quot;item + &quot; è già presente&quot;.">
<polygon fill="white" stroke="black" points="163,-71.5 163,-101.5 288,-101.5 288,-71.5 163,-71.5"/>
<text text-anchor="start" x="171" y="-89.5" font-family="Helvetica,sans-Serif" font-size="10.00">org.example.util.console.</text>
<text text-anchor="middle" x="225.5" y="-78.5" font-family="Helvetica,sans-Serif" font-size="10.00">Output.printIsPresent</text>
</a>
</g>
</g>
<!-- Node1&#45;&gt;Node2 -->
<g id="edge1" class="edge">
<title>Node1&#45;&gt;Node2</title>
<path fill="none" stroke="midnightblue" d="M326.73,-55.61C309.82,-60.82 291.57,-66.45 275.34,-71.45"/>
<polygon fill="midnightblue" stroke="midnightblue" points="327.97,-58.89 336.5,-52.6 325.91,-52.2 327.97,-58.89"/>
</g>
<!-- Node3 -->
<g id="node3" class="node">
<title>Node3</title>
<g id="a_node3"><a xlink:href="../../d4/d31/a00069_aec5dd97874207af8ecf9680b111134e1.html#aec5dd97874207af8ecf9680b111134e1" target="_top" xlink:title="Stampa la stringa &quot;input non valido&quot;.">
<polygon fill="white" stroke="black" points="163,-22.5 163,-52.5 288,-52.5 288,-22.5 163,-22.5"/>
<text text-anchor="start" x="171" y="-40.5" font-family="Helvetica,sans-Serif" font-size="10.00">org.example.util.console.</text>
<text text-anchor="middle" x="225.5" y="-29.5" font-family="Helvetica,sans-Serif" font-size="10.00">Output.printNotValid</text>
</a>
</g>
</g>
<!-- Node1&#45;&gt;Node3 -->
<g id="edge2" class="edge">
<title>Node1&#45;&gt;Node3</title>
<path fill="none" stroke="midnightblue" d="M313.41,-37.5C305.01,-37.5 296.5,-37.5 288.26,-37.5"/>
<polygon fill="midnightblue" stroke="midnightblue" points="313.57,-41 323.57,-37.5 313.57,-34 313.57,-41"/>
</g>
<!-- Node4 -->
<g id="node4" class="node">
<title>Node4</title>
<g id="a_node4"><a xlink:href="../../d1/d6e/a00073_a65bd335250cee3a9dc558f7d5dbca1bc.html#a65bd335250cee3a9dc558f7d5dbca1bc" target="_top" xlink:title="Richiesta tramite input da tastiera.">
<polygon fill="white" stroke="black" points="0,-0.5 0,-30.5 127,-30.5 127,-0.5 0,-0.5"/>
<text text-anchor="start" x="8" y="-18.5" font-family="Helvetica,sans-Serif" font-size="10.00">org.example.util.validator.</text>
<text text-anchor="middle" x="63.5" y="-7.5" font-family="Helvetica,sans-Serif" font-size="10.00">AbstractValidator.request</text>
</a>
</g>
</g>
<!-- Node1&#45;&gt;Node4 -->
<g id="edge4" class="edge">
<title>Node1&#45;&gt;Node4</title>
<path fill="none" stroke="midnightblue" d="M324.41,-20.08C312.44,-17.34 299.9,-14.94 288,-13.5 234.07,-6.96 172.28,-8.17 127.36,-10.61"/>
<polygon fill="midnightblue" stroke="midnightblue" points="323.78,-23.53 334.32,-22.44 325.4,-16.72 323.78,-23.53"/>
</g>
<!-- Node3&#45;&gt;Node4 -->
<g id="edge3" class="edge">
<title>Node3&#45;&gt;Node4</title>
<path fill="none" stroke="midnightblue" d="M152.46,-27.6C144.05,-26.44 135.52,-25.27 127.25,-24.13"/>
<polygon fill="midnightblue" stroke="midnightblue" points="152.26,-31.1 162.64,-28.99 153.21,-24.16 152.26,-31.1"/>
</g>
</g>
</svg>
