<?xml version="1.0" encoding="UTF-8" standalone="no"?>
<!DOCTYPE svg PUBLIC "-//W3C//DTD SVG 1.1//EN"
 "http://www.w3.org/Graphics/SVG/1.1/DTD/svg11.dtd">
<!-- Generated by graphviz version 2.47.2 (20210527.0053)
 -->
<!-- Title: org.example.util.validator.AbstractValidator.setValidationRules Pages: 1 -->
<svg width="593pt" height="296pt"
 viewBox="0.00 0.00 593.00 296.00" xmlns="http://www.w3.org/2000/svg" xmlns:xlink="http://www.w3.org/1999/xlink">
<g id="graph0" class="graph" transform="scale(1 1) rotate(0) translate(4 292)">
<title>org.example.util.validator.AbstractValidator.setValidationRules</title>
<polygon fill="white" stroke="transparent" points="-4,4 -4,-292 589,-292 589,4 -4,4"/>
<!-- Node1 -->
<g id="node1" class="node">
<title>Node1</title>
<g id="a_node1"><a xlink:title="Sets validation rules.">
<polygon fill="#bfbfbf" stroke="black" points="409,-125.5 409,-155.5 585,-155.5 585,-125.5 409,-125.5"/>
<text text-anchor="start" x="417" y="-143.5" font-family="Helvetica,sans-Serif" font-size="10.00">org.example.util.validator.</text>
<text text-anchor="middle" x="497" y="-132.5" font-family="Helvetica,sans-Serif" font-size="10.00">AbstractValidator.setValidationRules</text>
</a>
</g>
</g>
<!-- Node2 -->
<g id="node2" class="node">
<title>Node2</title>
<g id="a_node2"><a xlink:href="../../db/db6/a00074_ae8dba6bfba3679ad3c67065ac184c9d9.html#ae8dba6bfba3679ad3c67065ac184c9d9" target="_top" xlink:title="Instantiates a new Validate email.">
<polygon fill="white" stroke="black" points="215,-257.5 215,-287.5 355,-287.5 355,-257.5 215,-257.5"/>
<text text-anchor="start" x="223" y="-275.5" font-family="Helvetica,sans-Serif" font-size="10.00">org.example.util.validator.</text>
<text text-anchor="middle" x="285" y="-264.5" font-family="Helvetica,sans-Serif" font-size="10.00">ValidateEmail.ValidateEmail</text>
</a>
</g>
</g>
<!-- Node1&#45;&gt;Node2 -->
<g id="edge1" class="edge">
<title>Node1&#45;&gt;Node2</title>
<path fill="none" stroke="midnightblue" d="M476.12,-163.24C453.49,-187.74 414.3,-226.21 373,-248.5 366.66,-251.92 359.78,-254.89 352.78,-257.46"/>
<polygon fill="midnightblue" stroke="midnightblue" points="478.73,-165.57 482.86,-155.81 473.55,-160.86 478.73,-165.57"/>
</g>
<!-- Node4 -->
<g id="node4" class="node">
<title>Node4</title>
<g id="a_node4"><a xlink:href="../../d4/d63/a00082_a9c90be3800e94202aa8c534963ba82a7.html#a9c90be3800e94202aa8c534963ba82a7" target="_top" xlink:title="Costruttore privato per Validate name.">
<polygon fill="white" stroke="black" points="214.5,-208.5 214.5,-238.5 355.5,-238.5 355.5,-208.5 214.5,-208.5"/>
<text text-anchor="start" x="222.5" y="-226.5" font-family="Helvetica,sans-Serif" font-size="10.00">org.example.util.validator.</text>
<text text-anchor="middle" x="285" y="-215.5" font-family="Helvetica,sans-Serif" font-size="10.00">ValidateName.ValidateName</text>
</a>
</g>
</g>
<!-- Node1&#45;&gt;Node4 -->
<g id="edge3" class="edge">
<title>Node1&#45;&gt;Node4</title>
<path fill="none" stroke="midnightblue" d="M458.14,-160.29C434.16,-172.34 402.26,-187.48 373,-198.5 363.59,-202.05 353.44,-205.38 343.52,-208.39"/>
<polygon fill="midnightblue" stroke="midnightblue" points="459.91,-163.32 467.25,-155.68 456.74,-157.08 459.91,-163.32"/>
</g>
<!-- Node6 -->
<g id="node6" class="node">
<title>Node6</title>
<g id="a_node6"><a xlink:href="../../da/d2a/a00086_a1850c3163d863987288bf1edcc6389b5.html#a1850c3163d863987288bf1edcc6389b5" target="_top" xlink:title="Instantiates a new Validate name project.">
<polygon fill="white" stroke="black" points="199,-148 199,-189 371,-189 371,-148 199,-148"/>
<text text-anchor="start" x="207" y="-177" font-family="Helvetica,sans-Serif" font-size="10.00">org.example.util.validator.</text>
<text text-anchor="start" x="207" y="-166" font-family="Helvetica,sans-Serif" font-size="10.00">ValidateNameProject.ValidateName</text>
<text text-anchor="middle" x="285" y="-155" font-family="Helvetica,sans-Serif" font-size="10.00">Project</text>
</a>
</g>
</g>
<!-- Node1&#45;&gt;Node6 -->
<g id="edge5" class="edge">
<title>Node1&#45;&gt;Node6</title>
<path fill="none" stroke="midnightblue" d="M398.83,-153.46C389.63,-154.68 380.35,-155.92 371.28,-157.13"/>
<polygon fill="midnightblue" stroke="midnightblue" points="399.32,-156.92 408.77,-152.13 398.39,-149.98 399.32,-156.92"/>
</g>
<!-- Node8 -->
<g id="node8" class="node">
<title>Node8</title>
<g id="a_node8"><a xlink:href="../../d9/dec/a00090_a7ec897e4582c73f64c31a54dd7be673e.html#a7ec897e4582c73f64c31a54dd7be673e" target="_top" xlink:title="Classe con soli metodi statici.">
<polygon fill="white" stroke="black" points="206,-98.5 206,-128.5 364,-128.5 364,-98.5 206,-98.5"/>
<text text-anchor="start" x="214" y="-116.5" font-family="Helvetica,sans-Serif" font-size="10.00">org.example.util.validator.</text>
<text text-anchor="middle" x="285" y="-105.5" font-family="Helvetica,sans-Serif" font-size="10.00">ValidateNumber.ValidateNumber</text>
</a>
</g>
</g>
<!-- Node1&#45;&gt;Node8 -->
<g id="edge7" class="edge">
<title>Node1&#45;&gt;Node8</title>
<path fill="none" stroke="midnightblue" d="M398.67,-127.99C387.13,-126.5 375.47,-125 364.24,-123.56"/>
<polygon fill="midnightblue" stroke="midnightblue" points="398.4,-131.48 408.77,-129.28 399.29,-124.54 398.4,-131.48"/>
</g>
<!-- Node10 -->
<g id="node10" class="node">
<title>Node10</title>
<g id="a_node10"><a xlink:href="../../dc/d54/a00094_a09058a89cf339fab41d91e0ede7e7a65.html#a09058a89cf339fab41d91e0ede7e7a65" target="_top" xlink:title="Classe con soli metodi statici.">
<polygon fill="white" stroke="black" points="197,-49.5 197,-79.5 373,-79.5 373,-49.5 197,-49.5"/>
<text text-anchor="start" x="205" y="-67.5" font-family="Helvetica,sans-Serif" font-size="10.00">org.example.util.validator.</text>
<text text-anchor="middle" x="285" y="-56.5" font-family="Helvetica,sans-Serif" font-size="10.00">ValidatePassword.ValidatePassword</text>
</a>
</g>
</g>
<!-- Node1&#45;&gt;Node10 -->
<g id="edge9" class="edge">
<title>Node1&#45;&gt;Node10</title>
<path fill="none" stroke="midnightblue" d="M453.41,-121.44C429.94,-111.3 400.14,-98.99 373,-89.5 363.06,-86.02 352.37,-82.66 341.99,-79.58"/>
<polygon fill="midnightblue" stroke="midnightblue" points="452.16,-124.72 462.72,-125.5 454.95,-118.3 452.16,-124.72"/>
</g>
<!-- Node12 -->
<g id="node12" class="node">
<title>Node12</title>
<g id="a_node12"><a xlink:href="../../d1/d44/a00098_a58d066a503457746c5baad96499626ce.html#a58d066a503457746c5baad96499626ce" target="_top" xlink:title="Instantiates a new Validate version.">
<polygon fill="white" stroke="black" points="207,-0.5 207,-30.5 363,-30.5 363,-0.5 207,-0.5"/>
<text text-anchor="start" x="215" y="-18.5" font-family="Helvetica,sans-Serif" font-size="10.00">org.example.util.validator.</text>
<text text-anchor="middle" x="285" y="-7.5" font-family="Helvetica,sans-Serif" font-size="10.00">ValidateVersion.ValidateVersion</text>
</a>
</g>
</g>
<!-- Node1&#45;&gt;Node12 -->
<g id="edge11" class="edge">
<title>Node1&#45;&gt;Node12</title>
<path fill="none" stroke="midnightblue" d="M474.38,-117.86C451.3,-94.96 412.67,-60.07 373,-39.5 366.46,-36.11 359.39,-33.16 352.21,-30.59"/>
<polygon fill="midnightblue" stroke="midnightblue" points="472.06,-120.5 481.59,-125.13 477.03,-115.57 472.06,-120.5"/>
</g>
<!-- Node3 -->
<g id="node3" class="node">
<title>Node3</title>
<g id="a_node3"><a xlink:href="../../db/db6/a00074_abac46a84234108a674bc1b3015b69c5f.html#abac46a84234108a674bc1b3015b69c5f" target="_top" xlink:title="Get instance validate email.">
<polygon fill="white" stroke="black" points="15.5,-257.5 15.5,-287.5 145.5,-287.5 145.5,-257.5 15.5,-257.5"/>
<text text-anchor="start" x="23.5" y="-275.5" font-family="Helvetica,sans-Serif" font-size="10.00">org.example.util.validator.</text>
<text text-anchor="middle" x="80.5" y="-264.5" font-family="Helvetica,sans-Serif" font-size="10.00">ValidateEmail.getInstance</text>
</a>
</g>
</g>
<!-- Node2&#45;&gt;Node3 -->
<g id="edge2" class="edge">
<title>Node2&#45;&gt;Node3</title>
<path fill="none" stroke="midnightblue" d="M204.74,-272.5C185.12,-272.5 164.34,-272.5 145.54,-272.5"/>
<polygon fill="midnightblue" stroke="midnightblue" points="204.88,-276 214.88,-272.5 204.88,-269 204.88,-276"/>
</g>
<!-- Node5 -->
<g id="node5" class="node">
<title>Node5</title>
<g id="a_node5"><a xlink:href="../../d4/d63/a00082_ac2b39a9696fd75151ce40bbe22c16b26.html#ac2b39a9696fd75151ce40bbe22c16b26" target="_top" xlink:title="LA classe e&#39; un Singleton.">
<polygon fill="white" stroke="black" points="15,-208.5 15,-238.5 146,-238.5 146,-208.5 15,-208.5"/>
<text text-anchor="start" x="23" y="-226.5" font-family="Helvetica,sans-Serif" font-size="10.00">org.example.util.validator.</text>
<text text-anchor="middle" x="80.5" y="-215.5" font-family="Helvetica,sans-Serif" font-size="10.00">ValidateName.getInstance</text>
</a>
</g>
</g>
<!-- Node4&#45;&gt;Node5 -->
<g id="edge4" class="edge">
<title>Node4&#45;&gt;Node5</title>
<path fill="none" stroke="midnightblue" d="M204.08,-223.5C184.89,-223.5 164.62,-223.5 146.21,-223.5"/>
<polygon fill="midnightblue" stroke="midnightblue" points="204.31,-227 214.31,-223.5 204.31,-220 204.31,-227"/>
</g>
<!-- Node7 -->
<g id="node7" class="node">
<title>Node7</title>
<g id="a_node7"><a xlink:href="../../da/d2a/a00086_a7c142951e54bdc41b5edfc0198b27085.html#a7c142951e54bdc41b5edfc0198b27085" target="_top" xlink:title=" ">
<polygon fill="white" stroke="black" points="0,-153.5 0,-183.5 161,-183.5 161,-153.5 0,-153.5"/>
<text text-anchor="start" x="8" y="-171.5" font-family="Helvetica,sans-Serif" font-size="10.00">org.example.util.validator.</text>
<text text-anchor="middle" x="80.5" y="-160.5" font-family="Helvetica,sans-Serif" font-size="10.00">ValidateNameProject.getInstance</text>
</a>
</g>
</g>
<!-- Node6&#45;&gt;Node7 -->
<g id="edge6" class="edge">
<title>Node6&#45;&gt;Node7</title>
<path fill="none" stroke="midnightblue" d="M188.45,-168.5C179.33,-168.5 170.15,-168.5 161.21,-168.5"/>
<polygon fill="midnightblue" stroke="midnightblue" points="188.71,-172 198.71,-168.5 188.71,-165 188.71,-172"/>
</g>
<!-- Node9 -->
<g id="node9" class="node">
<title>Node9</title>
<g id="a_node9"><a xlink:href="../../d9/dec/a00090_a1840e622aff4ceb0f101dfccfbaa1ea6.html#a1840e622aff4ceb0f101dfccfbaa1ea6" target="_top" xlink:title=" ">
<polygon fill="white" stroke="black" points="11,-98.5 11,-128.5 150,-128.5 150,-98.5 11,-98.5"/>
<text text-anchor="start" x="19" y="-116.5" font-family="Helvetica,sans-Serif" font-size="10.00">org.example.util.validator.</text>
<text text-anchor="middle" x="80.5" y="-105.5" font-family="Helvetica,sans-Serif" font-size="10.00">ValidateNumber.getInstance</text>
</a>
</g>
</g>
<!-- Node8&#45;&gt;Node9 -->
<g id="edge8" class="edge">
<title>Node8&#45;&gt;Node9</title>
<path fill="none" stroke="midnightblue" d="M195.56,-113.5C180.37,-113.5 164.79,-113.5 150.21,-113.5"/>
<polygon fill="midnightblue" stroke="midnightblue" points="196,-117 206,-113.5 196,-110 196,-117"/>
</g>
<!-- Node11 -->
<g id="node11" class="node">
<title>Node11</title>
<g id="a_node11"><a xlink:href="../../dc/d54/a00094_a7cdbfc909abec4b38a5faf0e3d681010.html#a7cdbfc909abec4b38a5faf0e3d681010" target="_top" xlink:title=" ">
<polygon fill="white" stroke="black" points="6.5,-49.5 6.5,-79.5 154.5,-79.5 154.5,-49.5 6.5,-49.5"/>
<text text-anchor="start" x="14.5" y="-67.5" font-family="Helvetica,sans-Serif" font-size="10.00">org.example.util.validator.</text>
<text text-anchor="middle" x="80.5" y="-56.5" font-family="Helvetica,sans-Serif" font-size="10.00">ValidatePassword.getInstance</text>
</a>
</g>
</g>
<!-- Node10&#45;&gt;Node11 -->
<g id="edge10" class="edge">
<title>Node10&#45;&gt;Node11</title>
<path fill="none" stroke="midnightblue" d="M186.69,-64.5C175.97,-64.5 165.18,-64.5 154.81,-64.5"/>
<polygon fill="midnightblue" stroke="midnightblue" points="186.95,-68 196.95,-64.5 186.95,-61 186.95,-68"/>
</g>
<!-- Node13 -->
<g id="node13" class="node">
<title>Node13</title>
<g id="a_node13"><a xlink:href="../../d1/d44/a00098_a35c88363913c2e20998d82e6ab1f5d82.html#a35c88363913c2e20998d82e6ab1f5d82" target="_top" xlink:title="Get instance validate version.">
<polygon fill="white" stroke="black" points="11.5,-0.5 11.5,-30.5 149.5,-30.5 149.5,-0.5 11.5,-0.5"/>
<text text-anchor="start" x="19.5" y="-18.5" font-family="Helvetica,sans-Serif" font-size="10.00">org.example.util.validator.</text>
<text text-anchor="middle" x="80.5" y="-7.5" font-family="Helvetica,sans-Serif" font-size="10.00">ValidateVersion.getInstance</text>
</a>
</g>
</g>
<!-- Node12&#45;&gt;Node13 -->
<g id="edge12" class="edge">
<title>Node12&#45;&gt;Node13</title>
<path fill="none" stroke="midnightblue" d="M196.65,-15.5C180.97,-15.5 164.84,-15.5 149.8,-15.5"/>
<polygon fill="midnightblue" stroke="midnightblue" points="196.87,-19 206.87,-15.5 196.87,-12 196.87,-19"/>
</g>
</g>
</svg>
