<?xml version="1.0" encoding="UTF-8" standalone="no"?>
<!DOCTYPE svg PUBLIC "-//W3C//DTD SVG 1.1//EN"
 "http://www.w3.org/Graphics/SVG/1.1/DTD/svg11.dtd">
<!-- Generated by graphviz version 2.47.2 (20210527.0053)
 -->
<!-- Title: org.example.util.validator.ValidateGeneric.ValidateGeneric Pages: 1 -->
<svg width="374pt" height="137pt"
 viewBox="0.00 0.00 374.00 137.00" xmlns="http://www.w3.org/2000/svg" xmlns:xlink="http://www.w3.org/1999/xlink">
<g id="graph0" class="graph" transform="scale(1 1) rotate(0) translate(4 133)">
<title>org.example.util.validator.ValidateGeneric.ValidateGeneric</title>
<polygon fill="white" stroke="transparent" points="-4,4 -4,-133 370,-133 370,4 -4,4"/>
<!-- Node1 -->
<g id="node1" class="node">
<title>Node1</title>
<g id="a_node1"><a xlink:title="Costruttore per la validazione di un oggetto generico.">
<polygon fill="#bfbfbf" stroke="black" points="0,-49.5 0,-79.5 158,-79.5 158,-49.5 0,-49.5"/>
<text text-anchor="start" x="8" y="-67.5" font-family="Helvetica,sans-Serif" font-size="10.00">org.example.util.validator.</text>
<text text-anchor="middle" x="79" y="-56.5" font-family="Helvetica,sans-Serif" font-size="10.00">ValidateGeneric.ValidateGeneric</text>
</a>
</g>
</g>
<!-- Node2 -->
<g id="node2" class="node">
<title>Node2</title>
<g id="a_node2"><a xlink:href="../../db/df8/a00076_a4e5c51528d1ceff3e97a2c833c66bd2e.html#a4e5c51528d1ceff3e97a2c833c66bd2e" target="_top" xlink:title="Sets name validator.">
<polygon fill="white" stroke="black" points="194,-98.5 194,-128.5 366,-128.5 366,-98.5 194,-98.5"/>
<text text-anchor="start" x="202" y="-116.5" font-family="Helvetica,sans-Serif" font-size="10.00">org.example.util.validator.</text>
<text text-anchor="middle" x="280" y="-105.5" font-family="Helvetica,sans-Serif" font-size="10.00">AbstractValidator.setNameValidator</text>
</a>
</g>
</g>
<!-- Node1&#45;&gt;Node2 -->
<g id="edge1" class="edge">
<title>Node1&#45;&gt;Node2</title>
<path fill="none" stroke="midnightblue" d="M141.06,-79.53C162.26,-84.76 186.22,-90.65 208.14,-96.05"/>
<polygon fill="midnightblue" stroke="midnightblue" points="207.51,-99.5 218.06,-98.49 209.18,-92.7 207.51,-99.5"/>
</g>
<!-- Node3 -->
<g id="node3" class="node">
<title>Node3</title>
<g id="a_node3"><a xlink:href="../../db/df8/a00076_ad9a4477ef4cec79579960fb1683ff1a6.html#ad9a4477ef4cec79579960fb1683ff1a6" target="_top" xlink:title="Sets pattern.">
<polygon fill="white" stroke="black" points="210,-49.5 210,-79.5 350,-79.5 350,-49.5 210,-49.5"/>
<text text-anchor="start" x="218" y="-67.5" font-family="Helvetica,sans-Serif" font-size="10.00">org.example.util.validator.</text>
<text text-anchor="middle" x="280" y="-56.5" font-family="Helvetica,sans-Serif" font-size="10.00">AbstractValidator.setPattern</text>
</a>
</g>
</g>
<!-- Node1&#45;&gt;Node3 -->
<g id="edge2" class="edge">
<title>Node1&#45;&gt;Node3</title>
<path fill="none" stroke="midnightblue" d="M158.08,-64.5C171.7,-64.5 185.89,-64.5 199.55,-64.5"/>
<polygon fill="midnightblue" stroke="midnightblue" points="199.87,-68 209.87,-64.5 199.87,-61 199.87,-68"/>
</g>
<!-- Node4 -->
<g id="node4" class="node">
<title>Node4</title>
<g id="a_node4"><a xlink:href="../../df/d5d/a00084_a245fb03095b9a67f37794fa5c9da3837.html#a245fb03095b9a67f37794fa5c9da3837" target="_top" xlink:title="Questo metodo permette di descrivere le regole di validazione qualora ci fosse bisogno.">
<polygon fill="white" stroke="black" points="195,-0.5 195,-30.5 365,-30.5 365,-0.5 195,-0.5"/>
<text text-anchor="start" x="203" y="-18.5" font-family="Helvetica,sans-Serif" font-size="10.00">org.example.util.validator.</text>
<text text-anchor="middle" x="280" y="-7.5" font-family="Helvetica,sans-Serif" font-size="10.00">ValidateGeneric.setValidationRules</text>
</a>
</g>
</g>
<!-- Node1&#45;&gt;Node4 -->
<g id="edge3" class="edge">
<title>Node1&#45;&gt;Node4</title>
<path fill="none" stroke="midnightblue" d="M141.06,-49.47C162.26,-44.24 186.22,-38.35 208.14,-32.95"/>
<polygon fill="midnightblue" stroke="midnightblue" points="209.18,-36.3 218.06,-30.51 207.51,-29.5 209.18,-36.3"/>
</g>
</g>
</svg>
