<?xml version="1.0" encoding="UTF-8" standalone="no"?>
<!DOCTYPE svg PUBLIC "-//W3C//DTD SVG 1.1//EN"
 "http://www.w3.org/Graphics/SVG/1.1/DTD/svg11.dtd">
<!-- Generated by graphviz version 2.47.2 (20210527.0053)
 -->
<!-- Title: org.example.util.validator.ValidateGeneric.setValidationRules Pages: 1 -->
<svg width="372pt" height="39pt"
 viewBox="0.00 0.00 372.00 39.00" xmlns="http://www.w3.org/2000/svg" xmlns:xlink="http://www.w3.org/1999/xlink">
<g id="graph0" class="graph" transform="scale(1 1) rotate(0) translate(4 35)">
<title>org.example.util.validator.ValidateGeneric.setValidationRules</title>
<polygon fill="white" stroke="transparent" points="-4,4 -4,-35 368,-35 368,4 -4,4"/>
<!-- Node1 -->
<g id="node1" class="node">
<title>Node1</title>
<g id="a_node1"><a xlink:title="Questo metodo permette di descrivere le regole di validazione qualora ci fosse bisogno.">
<polygon fill="#bfbfbf" stroke="black" points="194,-0.5 194,-30.5 364,-30.5 364,-0.5 194,-0.5"/>
<text text-anchor="start" x="202" y="-18.5" font-family="Helvetica,sans-Serif" font-size="10.00">org.example.util.validator.</text>
<text text-anchor="middle" x="279" y="-7.5" font-family="Helvetica,sans-Serif" font-size="10.00">ValidateGeneric.setValidationRules</text>
</a>
</g>
</g>
<!-- Node2 -->
<g id="node2" class="node">
<title>Node2</title>
<g id="a_node2"><a xlink:href="../../d9/da4/a00078_a9a695c7fc9592e1f7ff2f9b17b454fb7.html#a9a695c7fc9592e1f7ff2f9b17b454fb7" target="_top" xlink:title="Costruttore per la validazione di un oggetto generico.">
<polygon fill="white" stroke="black" points="0,-0.5 0,-30.5 158,-30.5 158,-0.5 0,-0.5"/>
<text text-anchor="start" x="8" y="-18.5" font-family="Helvetica,sans-Serif" font-size="10.00">org.example.util.validator.</text>
<text text-anchor="middle" x="79" y="-7.5" font-family="Helvetica,sans-Serif" font-size="10.00">ValidateGeneric.ValidateGeneric</text>
</a>
</g>
</g>
<!-- Node1&#45;&gt;Node2 -->
<g id="edge1" class="edge">
<title>Node1&#45;&gt;Node2</title>
<path fill="none" stroke="midnightblue" d="M183.47,-15.5C175.01,-15.5 166.51,-15.5 158.21,-15.5"/>
<polygon fill="midnightblue" stroke="midnightblue" points="183.74,-19 193.74,-15.5 183.74,-12 183.74,-19"/>
</g>
</g>
</svg>
