<?xml version="1.0" encoding="UTF-8" standalone="no"?>
<!DOCTYPE svg PUBLIC "-//W3C//DTD SVG 1.1//EN"
 "http://www.w3.org/Graphics/SVG/1.1/DTD/svg11.dtd">
<!-- Generated by graphviz version 2.47.2 (20210527.0053)
 -->
<!-- Title: org.example.util.validator.ValidateName.getInstance Pages: 1 -->
<svg width="528pt" height="137pt"
 viewBox="0.00 0.00 528.00 137.00" xmlns="http://www.w3.org/2000/svg" xmlns:xlink="http://www.w3.org/1999/xlink">
<g id="graph0" class="graph" transform="scale(1 1) rotate(0) translate(4 133)">
<title>org.example.util.validator.ValidateName.getInstance</title>
<polygon fill="white" stroke="transparent" points="-4,4 -4,-133 524,-133 524,4 -4,4"/>
<!-- Node1 -->
<g id="node1" class="node">
<title>Node1</title>
<g id="a_node1"><a xlink:title="LA classe e&#39; un Singleton.">
<polygon fill="#bfbfbf" stroke="black" points="0,-49.5 0,-79.5 131,-79.5 131,-49.5 0,-49.5"/>
<text text-anchor="start" x="8" y="-67.5" font-family="Helvetica,sans-Serif" font-size="10.00">org.example.util.validator.</text>
<text text-anchor="middle" x="65.5" y="-56.5" font-family="Helvetica,sans-Serif" font-size="10.00">ValidateName.getInstance</text>
</a>
</g>
</g>
<!-- Node2 -->
<g id="node2" class="node">
<title>Node2</title>
<g id="a_node2"><a xlink:href="../../db/ddf/a00088_a9c90be3800e94202aa8c534963ba82a7.html#a9c90be3800e94202aa8c534963ba82a7" target="_top" xlink:title="Costruttore privato per Validate name.">
<polygon fill="white" stroke="black" points="167,-49.5 167,-79.5 308,-79.5 308,-49.5 167,-49.5"/>
<text text-anchor="start" x="175" y="-67.5" font-family="Helvetica,sans-Serif" font-size="10.00">org.example.util.validator.</text>
<text text-anchor="middle" x="237.5" y="-56.5" font-family="Helvetica,sans-Serif" font-size="10.00">ValidateName.ValidateName</text>
</a>
</g>
</g>
<!-- Node1&#45;&gt;Node2 -->
<g id="edge1" class="edge">
<title>Node1&#45;&gt;Node2</title>
<path fill="none" stroke="midnightblue" d="M131.25,-64.5C139.62,-64.5 148.26,-64.5 156.83,-64.5"/>
<polygon fill="midnightblue" stroke="midnightblue" points="156.83,-68 166.83,-64.5 156.83,-61 156.83,-68"/>
</g>
<!-- Node3 -->
<g id="node3" class="node">
<title>Node3</title>
<g id="a_node3"><a xlink:href="../../db/df8/a00076_a4e5c51528d1ceff3e97a2c833c66bd2e.html#a4e5c51528d1ceff3e97a2c833c66bd2e" target="_top" xlink:title="Sets name validator.">
<polygon fill="white" stroke="black" points="346,-98.5 346,-128.5 518,-128.5 518,-98.5 346,-98.5"/>
<text text-anchor="start" x="354" y="-116.5" font-family="Helvetica,sans-Serif" font-size="10.00">org.example.util.validator.</text>
<text text-anchor="middle" x="432" y="-105.5" font-family="Helvetica,sans-Serif" font-size="10.00">AbstractValidator.setNameValidator</text>
</a>
</g>
</g>
<!-- Node2&#45;&gt;Node3 -->
<g id="edge2" class="edge">
<title>Node2&#45;&gt;Node3</title>
<path fill="none" stroke="midnightblue" d="M297.56,-79.53C317.98,-84.73 341.04,-90.6 362.17,-95.98"/>
<polygon fill="midnightblue" stroke="midnightblue" points="361.49,-99.42 372.05,-98.49 363.22,-92.64 361.49,-99.42"/>
</g>
<!-- Node4 -->
<g id="node4" class="node">
<title>Node4</title>
<g id="a_node4"><a xlink:href="../../db/df8/a00076_ad9a4477ef4cec79579960fb1683ff1a6.html#ad9a4477ef4cec79579960fb1683ff1a6" target="_top" xlink:title="Sets pattern.">
<polygon fill="white" stroke="black" points="362,-49.5 362,-79.5 502,-79.5 502,-49.5 362,-49.5"/>
<text text-anchor="start" x="370" y="-67.5" font-family="Helvetica,sans-Serif" font-size="10.00">org.example.util.validator.</text>
<text text-anchor="middle" x="432" y="-56.5" font-family="Helvetica,sans-Serif" font-size="10.00">AbstractValidator.setPattern</text>
</a>
</g>
</g>
<!-- Node2&#45;&gt;Node4 -->
<g id="edge3" class="edge">
<title>Node2&#45;&gt;Node4</title>
<path fill="none" stroke="midnightblue" d="M308.27,-64.5C322.3,-64.5 337.14,-64.5 351.47,-64.5"/>
<polygon fill="midnightblue" stroke="midnightblue" points="351.79,-68 361.79,-64.5 351.79,-61 351.79,-68"/>
</g>
<!-- Node5 -->
<g id="node5" class="node">
<title>Node5</title>
<g id="a_node5"><a xlink:href="../../db/df8/a00076_a5cbc4c3ade49bfeff8b56acb5a872fbc.html#a5cbc4c3ade49bfeff8b56acb5a872fbc" target="_top" xlink:title="Sets validation rules.">
<polygon fill="white" stroke="black" points="344,-0.5 344,-30.5 520,-30.5 520,-0.5 344,-0.5"/>
<text text-anchor="start" x="352" y="-18.5" font-family="Helvetica,sans-Serif" font-size="10.00">org.example.util.validator.</text>
<text text-anchor="middle" x="432" y="-7.5" font-family="Helvetica,sans-Serif" font-size="10.00">AbstractValidator.setValidationRules</text>
</a>
</g>
</g>
<!-- Node2&#45;&gt;Node5 -->
<g id="edge4" class="edge">
<title>Node2&#45;&gt;Node5</title>
<path fill="none" stroke="midnightblue" d="M297.56,-49.47C317.98,-44.27 341.04,-38.4 362.17,-33.02"/>
<polygon fill="midnightblue" stroke="midnightblue" points="363.22,-36.36 372.05,-30.51 361.49,-29.58 363.22,-36.36"/>
</g>
</g>
</svg>
