<?xml version="1.0" encoding="UTF-8" standalone="no"?>
<!DOCTYPE svg PUBLIC "-//W3C//DTD SVG 1.1//EN"
 "http://www.w3.org/Graphics/SVG/1.1/DTD/svg11.dtd">
<!-- Generated by graphviz version 2.47.2 (20210527.0053)
 -->
<!-- Title: org.example.util.validator.ValidateNameProject.ValidateNameProject Pages: 1 -->
<svg width="392pt" height="137pt"
 viewBox="0.00 0.00 392.00 137.00" xmlns="http://www.w3.org/2000/svg" xmlns:xlink="http://www.w3.org/1999/xlink">
<g id="graph0" class="graph" transform="scale(1 1) rotate(0) translate(4 133)">
<title>org.example.util.validator.ValidateNameProject.ValidateNameProject</title>
<polygon fill="white" stroke="transparent" points="-4,4 -4,-133 388,-133 388,4 -4,4"/>
<!-- Node1 -->
<g id="node1" class="node">
<title>Node1</title>
<g id="a_node1"><a xlink:title="Instantiates a new Validate name project.">
<polygon fill="#bfbfbf" stroke="black" points="0,-44 0,-85 172,-85 172,-44 0,-44"/>
<text text-anchor="start" x="8" y="-73" font-family="Helvetica,sans-Serif" font-size="10.00">org.example.util.validator.</text>
<text text-anchor="start" x="8" y="-62" font-family="Helvetica,sans-Serif" font-size="10.00">ValidateNameProject.ValidateName</text>
<text text-anchor="middle" x="86" y="-51" font-family="Helvetica,sans-Serif" font-size="10.00">Project</text>
</a>
</g>
</g>
<!-- Node2 -->
<g id="node2" class="node">
<title>Node2</title>
<g id="a_node2"><a xlink:href="../../db/df8/a00076_a4e5c51528d1ceff3e97a2c833c66bd2e.html#a4e5c51528d1ceff3e97a2c833c66bd2e" target="_top" xlink:title="Sets name validator.">
<polygon fill="white" stroke="black" points="210,-98.5 210,-128.5 382,-128.5 382,-98.5 210,-98.5"/>
<text text-anchor="start" x="218" y="-116.5" font-family="Helvetica,sans-Serif" font-size="10.00">org.example.util.validator.</text>
<text text-anchor="middle" x="296" y="-105.5" font-family="Helvetica,sans-Serif" font-size="10.00">AbstractValidator.setNameValidator</text>
</a>
</g>
</g>
<!-- Node1&#45;&gt;Node2 -->
<g id="edge1" class="edge">
<title>Node1&#45;&gt;Node2</title>
<path fill="none" stroke="midnightblue" d="M172.2,-84.57C188.55,-88.42 205.55,-92.43 221.49,-96.18"/>
<polygon fill="midnightblue" stroke="midnightblue" points="220.73,-99.6 231.27,-98.49 222.34,-92.79 220.73,-99.6"/>
</g>
<!-- Node3 -->
<g id="node3" class="node">
<title>Node3</title>
<g id="a_node3"><a xlink:href="../../db/df8/a00076_ad9a4477ef4cec79579960fb1683ff1a6.html#ad9a4477ef4cec79579960fb1683ff1a6" target="_top" xlink:title="Sets pattern.">
<polygon fill="white" stroke="black" points="226,-49.5 226,-79.5 366,-79.5 366,-49.5 226,-49.5"/>
<text text-anchor="start" x="234" y="-67.5" font-family="Helvetica,sans-Serif" font-size="10.00">org.example.util.validator.</text>
<text text-anchor="middle" x="296" y="-56.5" font-family="Helvetica,sans-Serif" font-size="10.00">AbstractValidator.setPattern</text>
</a>
</g>
</g>
<!-- Node1&#45;&gt;Node3 -->
<g id="edge2" class="edge">
<title>Node1&#45;&gt;Node3</title>
<path fill="none" stroke="midnightblue" d="M172.2,-64.5C186.56,-64.5 201.4,-64.5 215.6,-64.5"/>
<polygon fill="midnightblue" stroke="midnightblue" points="215.81,-68 225.81,-64.5 215.81,-61 215.81,-68"/>
</g>
<!-- Node4 -->
<g id="node4" class="node">
<title>Node4</title>
<g id="a_node4"><a xlink:href="../../db/df8/a00076_a5cbc4c3ade49bfeff8b56acb5a872fbc.html#a5cbc4c3ade49bfeff8b56acb5a872fbc" target="_top" xlink:title="Sets validation rules.">
<polygon fill="white" stroke="black" points="208,-0.5 208,-30.5 384,-30.5 384,-0.5 208,-0.5"/>
<text text-anchor="start" x="216" y="-18.5" font-family="Helvetica,sans-Serif" font-size="10.00">org.example.util.validator.</text>
<text text-anchor="middle" x="296" y="-7.5" font-family="Helvetica,sans-Serif" font-size="10.00">AbstractValidator.setValidationRules</text>
</a>
</g>
</g>
<!-- Node1&#45;&gt;Node4 -->
<g id="edge3" class="edge">
<title>Node1&#45;&gt;Node4</title>
<path fill="none" stroke="midnightblue" d="M172.2,-44.43C188.55,-40.58 205.55,-36.57 221.49,-32.82"/>
<polygon fill="midnightblue" stroke="midnightblue" points="222.34,-36.21 231.27,-30.51 220.73,-29.4 222.34,-36.21"/>
</g>
</g>
</svg>
