<?xml version="1.0" encoding="UTF-8" standalone="no"?>
<!DOCTYPE svg PUBLIC "-//W3C//DTD SVG 1.1//EN"
 "http://www.w3.org/Graphics/SVG/1.1/DTD/svg11.dtd">
<!-- Generated by graphviz version 2.47.2 (20210527.0053)
 -->
<!-- Title: org.example.util.validator.ValidateNameProject.getInstance Pages: 1 -->
<svg width="589pt" height="137pt"
 viewBox="0.00 0.00 589.00 137.00" xmlns="http://www.w3.org/2000/svg" xmlns:xlink="http://www.w3.org/1999/xlink">
<g id="graph0" class="graph" transform="scale(1 1) rotate(0) translate(4 133)">
<title>org.example.util.validator.ValidateNameProject.getInstance</title>
<polygon fill="white" stroke="transparent" points="-4,4 -4,-133 585,-133 585,4 -4,4"/>
<!-- Node1 -->
<g id="node1" class="node">
<title>Node1</title>
<g id="a_node1"><a xlink:title=" ">
<polygon fill="#bfbfbf" stroke="black" points="0,-49.5 0,-79.5 161,-79.5 161,-49.5 0,-49.5"/>
<text text-anchor="start" x="8" y="-67.5" font-family="Helvetica,sans-Serif" font-size="10.00">org.example.util.validator.</text>
<text text-anchor="middle" x="80.5" y="-56.5" font-family="Helvetica,sans-Serif" font-size="10.00">ValidateNameProject.getInstance</text>
</a>
</g>
</g>
<!-- Node2 -->
<g id="node2" class="node">
<title>Node2</title>
<g id="a_node2"><a xlink:href="../../d1/dc1/a00092_a1850c3163d863987288bf1edcc6389b5.html#a1850c3163d863987288bf1edcc6389b5" target="_top" xlink:title="Instantiates a new Validate name project.">
<polygon fill="white" stroke="black" points="197,-44 197,-85 369,-85 369,-44 197,-44"/>
<text text-anchor="start" x="205" y="-73" font-family="Helvetica,sans-Serif" font-size="10.00">org.example.util.validator.</text>
<text text-anchor="start" x="205" y="-62" font-family="Helvetica,sans-Serif" font-size="10.00">ValidateNameProject.ValidateName</text>
<text text-anchor="middle" x="283" y="-51" font-family="Helvetica,sans-Serif" font-size="10.00">Project</text>
</a>
</g>
</g>
<!-- Node1&#45;&gt;Node2 -->
<g id="edge1" class="edge">
<title>Node1&#45;&gt;Node2</title>
<path fill="none" stroke="midnightblue" d="M161.03,-64.5C169.52,-64.5 178.21,-64.5 186.86,-64.5"/>
<polygon fill="midnightblue" stroke="midnightblue" points="186.96,-68 196.96,-64.5 186.96,-61 186.96,-68"/>
</g>
<!-- Node3 -->
<g id="node3" class="node">
<title>Node3</title>
<g id="a_node3"><a xlink:href="../../db/df8/a00076_a4e5c51528d1ceff3e97a2c833c66bd2e.html#a4e5c51528d1ceff3e97a2c833c66bd2e" target="_top" xlink:title="Sets name validator.">
<polygon fill="white" stroke="black" points="407,-98.5 407,-128.5 579,-128.5 579,-98.5 407,-98.5"/>
<text text-anchor="start" x="415" y="-116.5" font-family="Helvetica,sans-Serif" font-size="10.00">org.example.util.validator.</text>
<text text-anchor="middle" x="493" y="-105.5" font-family="Helvetica,sans-Serif" font-size="10.00">AbstractValidator.setNameValidator</text>
</a>
</g>
</g>
<!-- Node2&#45;&gt;Node3 -->
<g id="edge2" class="edge">
<title>Node2&#45;&gt;Node3</title>
<path fill="none" stroke="midnightblue" d="M369.2,-84.57C385.55,-88.42 402.55,-92.43 418.49,-96.18"/>
<polygon fill="midnightblue" stroke="midnightblue" points="417.73,-99.6 428.27,-98.49 419.34,-92.79 417.73,-99.6"/>
</g>
<!-- Node4 -->
<g id="node4" class="node">
<title>Node4</title>
<g id="a_node4"><a xlink:href="../../db/df8/a00076_ad9a4477ef4cec79579960fb1683ff1a6.html#ad9a4477ef4cec79579960fb1683ff1a6" target="_top" xlink:title="Sets pattern.">
<polygon fill="white" stroke="black" points="423,-49.5 423,-79.5 563,-79.5 563,-49.5 423,-49.5"/>
<text text-anchor="start" x="431" y="-67.5" font-family="Helvetica,sans-Serif" font-size="10.00">org.example.util.validator.</text>
<text text-anchor="middle" x="493" y="-56.5" font-family="Helvetica,sans-Serif" font-size="10.00">AbstractValidator.setPattern</text>
</a>
</g>
</g>
<!-- Node2&#45;&gt;Node4 -->
<g id="edge3" class="edge">
<title>Node2&#45;&gt;Node4</title>
<path fill="none" stroke="midnightblue" d="M369.2,-64.5C383.56,-64.5 398.4,-64.5 412.6,-64.5"/>
<polygon fill="midnightblue" stroke="midnightblue" points="412.81,-68 422.81,-64.5 412.81,-61 412.81,-68"/>
</g>
<!-- Node5 -->
<g id="node5" class="node">
<title>Node5</title>
<g id="a_node5"><a xlink:href="../../db/df8/a00076_a5cbc4c3ade49bfeff8b56acb5a872fbc.html#a5cbc4c3ade49bfeff8b56acb5a872fbc" target="_top" xlink:title="Sets validation rules.">
<polygon fill="white" stroke="black" points="405,-0.5 405,-30.5 581,-30.5 581,-0.5 405,-0.5"/>
<text text-anchor="start" x="413" y="-18.5" font-family="Helvetica,sans-Serif" font-size="10.00">org.example.util.validator.</text>
<text text-anchor="middle" x="493" y="-7.5" font-family="Helvetica,sans-Serif" font-size="10.00">AbstractValidator.setValidationRules</text>
</a>
</g>
</g>
<!-- Node2&#45;&gt;Node5 -->
<g id="edge4" class="edge">
<title>Node2&#45;&gt;Node5</title>
<path fill="none" stroke="midnightblue" d="M369.2,-44.43C385.55,-40.58 402.55,-36.57 418.49,-32.82"/>
<polygon fill="midnightblue" stroke="midnightblue" points="419.34,-36.21 428.27,-30.51 417.73,-29.4 419.34,-36.21"/>
</g>
</g>
</svg>
