<?xml version="1.0" encoding="UTF-8" standalone="no"?>
<!DOCTYPE svg PUBLIC "-//W3C//DTD SVG 1.1//EN"
 "http://www.w3.org/Graphics/SVG/1.1/DTD/svg11.dtd">
<!-- Generated by graphviz version 2.47.2 (20210527.0053)
 -->
<!-- Title: org.example.util.validator.ValidatePassword Pages: 1 -->
<svg width="210pt" height="359pt"
 viewBox="0.00 0.00 210.00 359.00" xmlns="http://www.w3.org/2000/svg" xmlns:xlink="http://www.w3.org/1999/xlink">
<g id="graph0" class="graph" transform="scale(1 1) rotate(0) translate(4 355)">
<title>org.example.util.validator.ValidatePassword</title>
<polygon fill="white" stroke="transparent" points="-4,4 -4,-355 206,-355 206,4 -4,4"/>
<!-- Node1 -->
<g id="node1" class="node">
<title>Node1</title>
<g id="a_node1"><a xlink:title="The type Validate password.">
<polygon fill="#bfbfbf" stroke="black" points="10,-0.5 10,-90.5 141,-90.5 141,-0.5 10,-0.5"/>
<text text-anchor="start" x="18" y="-78.5" font-family="Helvetica,sans-Serif" font-size="10.00">org.example.util.validator.</text>
<text text-anchor="middle" x="75.5" y="-67.5" font-family="Helvetica,sans-Serif" font-size="10.00">ValidatePassword</text>
<polyline fill="none" stroke="black" points="10,-60.5 141,-60.5 "/>
<text text-anchor="middle" x="75.5" y="-48.5" font-family="Helvetica,sans-Serif" font-size="10.00"> </text>
<polyline fill="none" stroke="black" points="10,-41.5 141,-41.5 "/>
<text text-anchor="start" x="18" y="-29.5" font-family="Helvetica,sans-Serif" font-size="10.00">+ static ValidatePassword</text>
<text text-anchor="start" x="18" y="-18.5" font-family="Helvetica,sans-Serif" font-size="10.00"> getInstance()</text>
<text text-anchor="start" x="18" y="-7.5" font-family="Helvetica,sans-Serif" font-size="10.00">&#45; ValidatePassword()</text>
</a>
</g>
</g>
<!-- Node1&#45;&gt;Node1 -->
<g id="edge2" class="edge">
<title>Node1&#45;&gt;Node1</title>
<path fill="none" stroke="#404040" d="M141.31,-56.55C151.81,-54.93 159,-51.25 159,-45.5 159,-42.27 156.73,-39.69 152.87,-37.76"/>
<polygon fill="none" stroke="#404040" points="152.84,-37.75 145.97,-39.95 141.31,-34.45 148.18,-32.26 152.84,-37.75"/>
<text text-anchor="middle" x="180.5" y="-43" font-family="Helvetica,sans-Serif" font-size="10.00"> &#45;instance</text>
</g>
<!-- Node2 -->
<g id="node2" class="node">
<title>Node2</title>
<g id="a_node2"><a xlink:href="../../db/df8/a00076.html" target="_top" xlink:title="Questa interfaccia permette la validazione di una Stringa con l&#39; elemento oggetto della classe.">
<polygon fill="white" stroke="black" points="0,-128.5 0,-350.5 151,-350.5 151,-128.5 0,-128.5"/>
<text text-anchor="start" x="8" y="-338.5" font-family="Helvetica,sans-Serif" font-size="10.00">org.example.util.validator.</text>
<text text-anchor="middle" x="75.5" y="-327.5" font-family="Helvetica,sans-Serif" font-size="10.00">AbstractValidator</text>
<polyline fill="none" stroke="black" points="0,-320.5 151,-320.5 "/>
<text text-anchor="start" x="8" y="-308.5" font-family="Helvetica,sans-Serif" font-size="10.00">&#45; String nameValidator</text>
<text text-anchor="start" x="8" y="-297.5" font-family="Helvetica,sans-Serif" font-size="10.00">&#45; String pattern</text>
<text text-anchor="start" x="8" y="-286.5" font-family="Helvetica,sans-Serif" font-size="10.00">&#45; String validationRules</text>
<polyline fill="none" stroke="black" points="0,-279.5 151,-279.5 "/>
<text text-anchor="start" x="8" y="-267.5" font-family="Helvetica,sans-Serif" font-size="10.00">+ String getPattern()</text>
<text text-anchor="start" x="8" y="-256.5" font-family="Helvetica,sans-Serif" font-size="10.00">+ String getRulesOfValidation()</text>
<text text-anchor="start" x="8" y="-245.5" font-family="Helvetica,sans-Serif" font-size="10.00">+ String getValidationRules()</text>
<text text-anchor="start" x="8" y="-234.5" font-family="Helvetica,sans-Serif" font-size="10.00">+ String getValidatorName()</text>
<text text-anchor="start" x="8" y="-223.5" font-family="Helvetica,sans-Serif" font-size="10.00">+ boolean isValid(String</text>
<text text-anchor="start" x="8" y="-212.5" font-family="Helvetica,sans-Serif" font-size="10.00"> string)</text>
<text text-anchor="start" x="8" y="-201.5" font-family="Helvetica,sans-Serif" font-size="10.00">+ String request()</text>
<text text-anchor="start" x="8" y="-190.5" font-family="Helvetica,sans-Serif" font-size="10.00">+ void setNameValidator</text>
<text text-anchor="start" x="8" y="-179.5" font-family="Helvetica,sans-Serif" font-size="10.00">(String nameValidator)</text>
<text text-anchor="start" x="8" y="-168.5" font-family="Helvetica,sans-Serif" font-size="10.00">+ void setPattern(String</text>
<text text-anchor="start" x="8" y="-157.5" font-family="Helvetica,sans-Serif" font-size="10.00"> pattern)</text>
<text text-anchor="start" x="8" y="-146.5" font-family="Helvetica,sans-Serif" font-size="10.00">+ void setValidationRules</text>
<text text-anchor="start" x="8" y="-135.5" font-family="Helvetica,sans-Serif" font-size="10.00">(String validationRules)</text>
</a>
</g>
</g>
<!-- Node2&#45;&gt;Node1 -->
<g id="edge1" class="edge">
<title>Node2&#45;&gt;Node1</title>
<path fill="none" stroke="midnightblue" d="M75.5,-118.33C75.5,-108.7 75.5,-99.41 75.5,-90.89"/>
<polygon fill="none" stroke="midnightblue" points="72,-118.48 75.5,-128.48 79,-118.48 72,-118.48"/>
</g>
</g>
</svg>
