<?xml version="1.0" encoding="UTF-8" standalone="no"?><svg xmlns="http://www.w3.org/2000/svg" xmlns:xlink="http://www.w3.org/1999/xlink" contentScriptType="application/ecmascript" contentStyleType="text/css" height="477px" preserveAspectRatio="none" style="width:657px;height:477px;background:#FFFFFF;" version="1.1" viewBox="0 0 657 477" width="657px" zoomAndPan="magnify"><defs><filter height="300%" id="fbv5p8x4dg3km" width="300%" x="-1" y="-1"><feGaussianBlur result="blurOut" stdDeviation="3.0"/><feColorMatrix in="blurOut" result="blurOut2" type="matrix" values="0 0 0 0 0 0 0 0 0 0 0 0 0 0 0 0 0 0 .4 0"/><feOffset dx="6.0" dy="6.0" in="blurOut2" result="blurOut3"/><feBlend in="SourceGraphic" in2="blurOut3" mode="normal"/></filter></defs><g><!--MD5=[f9f015eaf33cff1756421a0e50529134]
cluster org.example.util.console--><polygon fill="#FFFFFF" filter="url(#fbv5p8x4dg3km)" points="24,9,292.5,9,303,44.4141,631.5,44.4141,631.5,466.5,24,466.5,24,9" style="stroke:#000000;stroke-width:2.25;"/><line style="stroke:#000000;stroke-width:2.25;" x1="24" x2="303" y1="44.4141" y2="44.4141"/><text fill="#000000" font-family="sans-serif" font-size="21" font-weight="bold" lengthAdjust="spacing" textLength="259.5" x="30" y="33.7998">org.example.util.console</text><!--MD5=[73b09d46fb8ebc409541b5b5bd88443a]
class org.example.util.console.Input--><rect codeLine="1" fill="#FEFECE" filter="url(#fbv5p8x4dg3km)" height="134.2617" id="org.example.util.console.Input" style="stroke:#A80036;stroke-width:2.25;" width="253.5" x="48.75" y="83.25"/><ellipse cx="148.875" cy="107.25" fill="#ADD1B2" rx="16.5" ry="16.5" style="stroke:#A80036;stroke-width:1.5;"/><path d="M151.875,102 Q152.1797,101.25 152.5313,100.875 Q152.8828,100.5 153.2813,100.5 Q153.9844,100.5 154.4297,100.9219 Q154.875,101.3438 154.875,102.3281 L154.875,104.6719 Q154.875,105.6563 154.4531,106.0781 Q154.0313,106.5 153.375,106.5 Q152.7891,106.5 152.4141,106.2422 Q152.0391,105.9844 151.875,105.3047 Q151.8047,104.8359 151.5469,104.5781 Q151.0781,104.0859 150.2344,103.8047 Q149.3906,103.5 148.5469,103.5 Q147.4922,103.5 146.6016,103.9219 Q145.7344,104.3438 145.0547,105.2813 Q144.375,106.2188 144.375,107.5078 L144.375,108.8906 Q144.375,110.4375 145.6406,111.4688 Q146.9063,112.5 149.1563,112.5 Q150.4922,112.5 151.4297,112.1953 Q151.9688,112.0313 152.5781,111.4922 Q152.9766,111.1875 153.1875,111.0938 Q153.3984,111 153.6563,111 Q154.1484,111 154.5,111.3984 Q154.875,111.7734 154.875,112.3125 Q154.875,112.8281 154.3594,113.4375 Q153.6094,114.3281 152.4141,114.8203 Q150.8438,115.5 148.9219,115.5 Q146.6719,115.5 144.8672,114.6094 Q143.4141,113.9063 142.3828,112.3828 Q141.375,110.8594 141.375,109.0547 L141.375,107.4141 Q141.375,105.5391 142.2656,103.8984 Q143.1797,102.2578 144.75,101.3906 Q146.3438,100.5 148.125,100.5 Q149.2031,100.5 150.1406,100.875 Q151.0781,101.25 151.875,102 Z " fill="#000000"/><text fill="#000000" font-family="sans-serif" font-size="18" lengthAdjust="spacing" textLength="40.5" x="179.625" y="114.6152">Input</text><line style="stroke:#A80036;stroke-width:2.25;" x1="50.25" x2="300.75" y1="131.25" y2="131.25"/><line style="stroke:#A80036;stroke-width:2.25;" x1="50.25" x2="300.75" y1="143.25" y2="143.25"/><rect fill="#F24D5C" height="9" style="stroke:#C82930;stroke-width:1.5;" width="9" x="60.75" y="155.25"/><text fill="#000000" font-family="sans-serif" font-size="16.5" lengthAdjust="spacing" textLength="117" x="78.75" y="166.3784">«Create» Input()</text><ellipse cx="65.25" cy="180.5039" fill="#84BE84" rx="4.5" ry="4.5" style="stroke:#038048;stroke-width:1.5;"/><text fill="#000000" font-family="sans-serif" font-size="16.5" lengthAdjust="spacing" text-decoration="underline" textLength="214.5" x="78.75" y="187.1323">String readLine(String,Object)</text><ellipse cx="65.25" cy="201.2578" fill="#84BE84" rx="4.5" ry="4.5" style="stroke:#038048;stroke-width:1.5;"/><text fill="#000000" font-family="sans-serif" font-size="16.5" lengthAdjust="spacing" text-decoration="underline" textLength="166.5" x="78.75" y="207.8862">String readPassword()</text><!--MD5=[354b64fe43a34fcd35c4e6fd102d453b]
class org.example.util.console.Output--><rect codeLine="6" fill="#FEFECE" filter="url(#fbv5p8x4dg3km)" height="175.7695" id="org.example.util.console.Output" style="stroke:#A80036;stroke-width:2.25;" width="252" x="355.5" y="63"/><ellipse cx="448.125" cy="87" fill="#ADD1B2" rx="16.5" ry="16.5" style="stroke:#A80036;stroke-width:1.5;"/><path d="M451.125,81.75 Q451.4297,81 451.7813,80.625 Q452.1328,80.25 452.5313,80.25 Q453.2344,80.25 453.6797,80.6719 Q454.125,81.0938 454.125,82.0781 L454.125,84.4219 Q454.125,85.4063 453.7031,85.8281 Q453.2813,86.25 452.625,86.25 Q452.0391,86.25 451.6641,85.9922 Q451.2891,85.7344 451.125,85.0547 Q451.0547,84.5859 450.7969,84.3281 Q450.3281,83.8359 449.4844,83.5547 Q448.6406,83.25 447.7969,83.25 Q446.7422,83.25 445.8516,83.6719 Q444.9844,84.0938 444.3047,85.0313 Q443.625,85.9688 443.625,87.2578 L443.625,88.6406 Q443.625,90.1875 444.8906,91.2188 Q446.1563,92.25 448.4063,92.25 Q449.7422,92.25 450.6797,91.9453 Q451.2188,91.7813 451.8281,91.2422 Q452.2266,90.9375 452.4375,90.8438 Q452.6484,90.75 452.9063,90.75 Q453.3984,90.75 453.75,91.1484 Q454.125,91.5234 454.125,92.0625 Q454.125,92.5781 453.6094,93.1875 Q452.8594,94.0781 451.6641,94.5703 Q450.0938,95.25 448.1719,95.25 Q445.9219,95.25 444.1172,94.3594 Q442.6641,93.6563 441.6328,92.1328 Q440.625,90.6094 440.625,88.8047 L440.625,87.1641 Q440.625,85.2891 441.5156,83.6484 Q442.4297,82.0078 444,81.1406 Q445.5938,80.25 447.375,80.25 Q448.4531,80.25 449.3906,80.625 Q450.3281,81 451.125,81.75 Z " fill="#000000"/><text fill="#000000" font-family="sans-serif" font-size="18" lengthAdjust="spacing" textLength="54" x="478.875" y="94.3652">Output</text><line style="stroke:#A80036;stroke-width:2.25;" x1="357" x2="606" y1="111" y2="111"/><line style="stroke:#A80036;stroke-width:2.25;" x1="357" x2="606" y1="123" y2="123"/><rect fill="#F24D5C" height="9" style="stroke:#C82930;stroke-width:1.5;" width="9" x="367.5" y="135"/><text fill="#000000" font-family="sans-serif" font-size="16.5" lengthAdjust="spacing" textLength="130.5" x="385.5" y="146.1284">«Create» Output()</text><ellipse cx="372" cy="160.2539" fill="#84BE84" rx="4.5" ry="4.5" style="stroke:#038048;stroke-width:1.5;"/><text fill="#000000" font-family="sans-serif" font-size="16.5" lengthAdjust="spacing" text-decoration="underline" textLength="201" x="385.5" y="166.8823">void printLine(String,Object)</text><ellipse cx="372" cy="181.0078" fill="#84BE84" rx="4.5" ry="4.5" style="stroke:#038048;stroke-width:1.5;"/><text fill="#000000" font-family="sans-serif" font-size="16.5" lengthAdjust="spacing" text-decoration="underline" textLength="213" x="385.5" y="187.6362">void printnlLine(String,Object)</text><ellipse cx="372" cy="201.7617" fill="#84BE84" rx="4.5" ry="4.5" style="stroke:#038048;stroke-width:1.5;"/><text fill="#000000" font-family="sans-serif" font-size="16.5" lengthAdjust="spacing" text-decoration="underline" textLength="138" x="385.5" y="208.3901">void printNotValid()</text><ellipse cx="372" cy="222.5156" fill="#84BE84" rx="4.5" ry="4.5" style="stroke:#038048;stroke-width:1.5;"/><text fill="#000000" font-family="sans-serif" font-size="16.5" lengthAdjust="spacing" text-decoration="underline" textLength="187.5" x="385.5" y="229.144">void printIsPresent(String)</text><!--MD5=[5d15a9614b078a3ae55321a41688c29d]
class org.example.util.console.Console--><rect codeLine="13" fill="#FEFECE" filter="url(#fbv5p8x4dg3km)" height="113.5078" id="org.example.util.console.Console" style="stroke:#A80036;stroke-width:2.25;" width="180" x="85.5" y="328.5"/><ellipse cx="135.675" cy="352.5" fill="#ADD1B2" rx="16.5" ry="16.5" style="stroke:#A80036;stroke-width:1.5;"/><path d="M138.675,347.25 Q138.9797,346.5 139.3313,346.125 Q139.6828,345.75 140.0813,345.75 Q140.7844,345.75 141.2297,346.1719 Q141.675,346.5938 141.675,347.5781 L141.675,349.9219 Q141.675,350.9063 141.2531,351.3281 Q140.8313,351.75 140.175,351.75 Q139.5891,351.75 139.2141,351.4922 Q138.8391,351.2344 138.675,350.5547 Q138.6047,350.0859 138.3469,349.8281 Q137.8781,349.3359 137.0344,349.0547 Q136.1906,348.75 135.3469,348.75 Q134.2922,348.75 133.4016,349.1719 Q132.5344,349.5938 131.8547,350.5313 Q131.175,351.4688 131.175,352.7578 L131.175,354.1406 Q131.175,355.6875 132.4406,356.7188 Q133.7063,357.75 135.9563,357.75 Q137.2922,357.75 138.2297,357.4453 Q138.7688,357.2813 139.3781,356.7422 Q139.7766,356.4375 139.9875,356.3438 Q140.1984,356.25 140.4563,356.25 Q140.9484,356.25 141.3,356.6484 Q141.675,357.0234 141.675,357.5625 Q141.675,358.0781 141.1594,358.6875 Q140.4094,359.5781 139.2141,360.0703 Q137.6438,360.75 135.7219,360.75 Q133.4719,360.75 131.6672,359.8594 Q130.2141,359.1563 129.1828,357.6328 Q128.175,356.1094 128.175,354.3047 L128.175,352.6641 Q128.175,350.7891 129.0656,349.1484 Q129.9797,347.5078 131.55,346.6406 Q133.1438,345.75 134.925,345.75 Q136.0031,345.75 136.9406,346.125 Q137.8781,346.5 138.675,347.25 Z " fill="#000000"/><text fill="#000000" font-family="sans-serif" font-size="18" lengthAdjust="spacing" textLength="70.5" x="162.825" y="359.8652">Console</text><line style="stroke:#A80036;stroke-width:2.25;" x1="87" x2="264" y1="376.5" y2="376.5"/><line style="stroke:#A80036;stroke-width:2.25;" x1="87" x2="264" y1="388.5" y2="388.5"/><rect fill="#F24D5C" height="9" style="stroke:#C82930;stroke-width:1.5;" width="9" x="97.5" y="400.5"/><text fill="#000000" font-family="sans-serif" font-size="16.5" lengthAdjust="spacing" textLength="141" x="115.5" y="411.6284">«Create» Console()</text><ellipse cx="102" cy="425.7539" fill="#84BE84" rx="4.5" ry="4.5" style="stroke:#038048;stroke-width:1.5;"/><text fill="#000000" font-family="sans-serif" font-size="16.5" lengthAdjust="spacing" text-decoration="underline" textLength="88.5" x="115.5" y="432.3823">void clrscr()</text><!--MD5=[38c743c97ca846d552be8a280a4e45bf]
link org.example.util.console.Input to org.example.util.console.Output--><!--MD5=[71bb852ed5c5ebf85dd475a3ea0db7dd]
link org.example.util.console.Input to org.example.util.console.Console--><!--MD5=[e6aceef3e3434e3e2e01bc5fadea6e47]
@startuml
class org.example.util.console.Input {
- <<Create>> Input()
+ {static} String readLine(String,Object)
+ {static} String readPassword()
}
class org.example.util.console.Output {
- <<Create>> Output()
+ {static} void printLine(String,Object)
+ {static} void printnlLine(String,Object)
+ {static} void printNotValid()
+ {static} void printIsPresent(String)
}
class org.example.util.console.Console {
- <<Create>> Console()
+ {static} void clrscr()
}
@enduml

PlantUML version 1.2021.7(Sun May 23 14:40:07 CEST 2021)
(GPL source distribution)
Java Runtime: OpenJDK Runtime Environment
JVM: Dynamic Code Evolution 64-Bit Server VM
Default Encoding: Cp1252
Language: it
Country: IT
--></g></svg>