<?xml version="1.0" encoding="UTF-8" standalone="no"?><svg xmlns="http://www.w3.org/2000/svg" xmlns:xlink="http://www.w3.org/1999/xlink" contentScriptType="application/ecmascript" contentStyleType="text/css" height="561px" preserveAspectRatio="none" style="width:1977px;height:561px;background:#FFFFFF;" version="1.1" viewBox="0 0 1977 561" width="1977px" zoomAndPan="magnify"><defs><filter height="300%" id="fht4lrrp9qz7g" width="300%" x="-1" y="-1"><feGaussianBlur result="blurOut" stdDeviation="3.0"/><feColorMatrix in="blurOut" result="blurOut2" type="matrix" values="0 0 0 0 0 0 0 0 0 0 0 0 0 0 0 0 0 0 .4 0"/><feOffset dx="6.0" dy="6.0" in="blurOut2" result="blurOut3"/><feBlend in="SourceGraphic" in2="blurOut3" mode="normal"/></filter></defs><g><!--MD5=[a54910c574b0d323fe374703b43eb1e0]
cluster org.example.util.validator--><polygon fill="#FFFFFF" filter="url(#fht4lrrp9qz7g)" points="24,9,301.5,9,312,44.4141,1951.5,44.4141,1951.5,550.5,24,550.5,24,9" style="stroke:#000000;stroke-width:2.25;"/><line style="stroke:#000000;stroke-width:2.25;" x1="24" x2="312" y1="44.4141" y2="44.4141"/><text fill="#000000" font-family="sans-serif" font-size="21" font-weight="bold" lengthAdjust="spacing" textLength="268.5" x="30" y="33.7998">org.example.util.validator</text><!--MD5=[fa725793e824af7c3d6eab58ad694a78]
class org.example.util.validator.ValidateNumber--><rect codeLine="1" fill="#FEFECE" filter="url(#fht4lrrp9qz7g)" height="134.2617" id="org.example.util.validator.ValidateNumber" style="stroke:#A80036;stroke-width:2.25;" width="253.5" x="48.75" y="391.5"/><ellipse cx="103.65" cy="415.5" fill="#ADD1B2" rx="16.5" ry="16.5" style="stroke:#A80036;stroke-width:1.5;"/><path d="M106.65,410.25 Q106.9547,409.5 107.3062,409.125 Q107.6578,408.75 108.0562,408.75 Q108.7594,408.75 109.2047,409.1719 Q109.65,409.5938 109.65,410.5781 L109.65,412.9219 Q109.65,413.9063 109.2281,414.3281 Q108.8062,414.75 108.15,414.75 Q107.5641,414.75 107.1891,414.4922 Q106.8141,414.2344 106.65,413.5547 Q106.5797,413.0859 106.3219,412.8281 Q105.8531,412.3359 105.0094,412.0547 Q104.1656,411.75 103.3219,411.75 Q102.2672,411.75 101.3766,412.1719 Q100.5094,412.5938 99.8297,413.5313 Q99.15,414.4688 99.15,415.7578 L99.15,417.1406 Q99.15,418.6875 100.4156,419.7188 Q101.6812,420.75 103.9312,420.75 Q105.2672,420.75 106.2047,420.4453 Q106.7437,420.2813 107.3531,419.7422 Q107.7516,419.4375 107.9625,419.3438 Q108.1734,419.25 108.4312,419.25 Q108.9234,419.25 109.275,419.6484 Q109.65,420.0234 109.65,420.5625 Q109.65,421.0781 109.1344,421.6875 Q108.3844,422.5781 107.1891,423.0703 Q105.6187,423.75 103.6969,423.75 Q101.4469,423.75 99.6422,422.8594 Q98.1891,422.1563 97.1578,420.6328 Q96.15,419.1094 96.15,417.3047 L96.15,415.6641 Q96.15,413.7891 97.0406,412.1484 Q97.9547,410.5078 99.525,409.6406 Q101.1187,408.75 102.9,408.75 Q103.9781,408.75 104.9156,409.125 Q105.8531,409.5 106.65,410.25 Z " fill="#000000"/><text fill="#000000" font-family="sans-serif" font-size="18" lengthAdjust="spacing" textLength="133.5" x="131.85" y="422.8652">ValidateNumber</text><line style="stroke:#A80036;stroke-width:2.25;" x1="50.25" x2="300.75" y1="439.5" y2="439.5"/><rect fill="none" height="9" style="stroke:#C82930;stroke-width:1.5;" width="9" x="60.75" y="451.5"/><text fill="#000000" font-family="sans-serif" font-size="16.5" lengthAdjust="spacing" text-decoration="underline" textLength="180" x="78.75" y="462.6284">ValidateNumber instance</text><line style="stroke:#A80036;stroke-width:2.25;" x1="50.25" x2="300.75" y1="472.2539" y2="472.2539"/><rect fill="#F24D5C" height="9" style="stroke:#C82930;stroke-width:1.5;" width="9" x="60.75" y="484.2539"/><text fill="#000000" font-family="sans-serif" font-size="16.5" lengthAdjust="spacing" textLength="196.5" x="78.75" y="495.3823">«Create» ValidateNumber()</text><ellipse cx="65.25" cy="509.5078" fill="#84BE84" rx="4.5" ry="4.5" style="stroke:#038048;stroke-width:1.5;"/><text fill="#000000" font-family="sans-serif" font-size="16.5" lengthAdjust="spacing" text-decoration="underline" textLength="214.5" x="78.75" y="516.1362">ValidateNumber getInstance()</text><!--MD5=[04306d1535e9c64c7015fc0ee7144797]
class org.example.util.validator.ValidatePassword--><rect codeLine="6" fill="#FEFECE" filter="url(#fht4lrrp9qz7g)" height="134.2617" id="org.example.util.validator.ValidatePassword" style="stroke:#A80036;stroke-width:2.25;" width="273" x="355.5" y="391.5"/><ellipse cx="411.75" cy="415.5" fill="#ADD1B2" rx="16.5" ry="16.5" style="stroke:#A80036;stroke-width:1.5;"/><path d="M414.75,410.25 Q415.0547,409.5 415.4063,409.125 Q415.7578,408.75 416.1563,408.75 Q416.8594,408.75 417.3047,409.1719 Q417.75,409.5938 417.75,410.5781 L417.75,412.9219 Q417.75,413.9063 417.3281,414.3281 Q416.9063,414.75 416.25,414.75 Q415.6641,414.75 415.2891,414.4922 Q414.9141,414.2344 414.75,413.5547 Q414.6797,413.0859 414.4219,412.8281 Q413.9531,412.3359 413.1094,412.0547 Q412.2656,411.75 411.4219,411.75 Q410.3672,411.75 409.4766,412.1719 Q408.6094,412.5938 407.9297,413.5313 Q407.25,414.4688 407.25,415.7578 L407.25,417.1406 Q407.25,418.6875 408.5156,419.7188 Q409.7813,420.75 412.0313,420.75 Q413.3672,420.75 414.3047,420.4453 Q414.8438,420.2813 415.4531,419.7422 Q415.8516,419.4375 416.0625,419.3438 Q416.2734,419.25 416.5313,419.25 Q417.0234,419.25 417.375,419.6484 Q417.75,420.0234 417.75,420.5625 Q417.75,421.0781 417.2344,421.6875 Q416.4844,422.5781 415.2891,423.0703 Q413.7188,423.75 411.7969,423.75 Q409.5469,423.75 407.7422,422.8594 Q406.2891,422.1563 405.2578,420.6328 Q404.25,419.1094 404.25,417.3047 L404.25,415.6641 Q404.25,413.7891 405.1406,412.1484 Q406.0547,410.5078 407.625,409.6406 Q409.2188,408.75 411,408.75 Q412.0781,408.75 413.0156,409.125 Q413.9531,409.5 414.75,410.25 Z " fill="#000000"/><text fill="#000000" font-family="sans-serif" font-size="18" lengthAdjust="spacing" textLength="150" x="440.25" y="422.8652">ValidatePassword</text><line style="stroke:#A80036;stroke-width:2.25;" x1="357" x2="627" y1="439.5" y2="439.5"/><rect fill="none" height="9" style="stroke:#C82930;stroke-width:1.5;" width="9" x="367.5" y="451.5"/><text fill="#000000" font-family="sans-serif" font-size="16.5" lengthAdjust="spacing" text-decoration="underline" textLength="199.5" x="385.5" y="462.6284">ValidatePassword instance</text><line style="stroke:#A80036;stroke-width:2.25;" x1="357" x2="627" y1="472.2539" y2="472.2539"/><rect fill="#F24D5C" height="9" style="stroke:#C82930;stroke-width:1.5;" width="9" x="367.5" y="484.2539"/><text fill="#000000" font-family="sans-serif" font-size="16.5" lengthAdjust="spacing" textLength="216" x="385.5" y="495.3823">«Create» ValidatePassword()</text><ellipse cx="372" cy="509.5078" fill="#84BE84" rx="4.5" ry="4.5" style="stroke:#038048;stroke-width:1.5;"/><text fill="#000000" font-family="sans-serif" font-size="16.5" lengthAdjust="spacing" text-decoration="underline" textLength="234" x="385.5" y="516.1362">ValidatePassword getInstance()</text><!--MD5=[466be65066749f33bef24acb3c2659ad]
class org.example.util.validator.ValidateName--><rect codeLine="11" fill="#FEFECE" filter="url(#fht4lrrp9qz7g)" height="134.2617" id="org.example.util.validator.ValidateName" style="stroke:#A80036;stroke-width:2.25;" width="238.5" x="681.75" y="391.5"/><ellipse cx="737.325" cy="415.5" fill="#ADD1B2" rx="16.5" ry="16.5" style="stroke:#A80036;stroke-width:1.5;"/><path d="M740.325,410.25 Q740.6297,409.5 740.9813,409.125 Q741.3328,408.75 741.7313,408.75 Q742.4344,408.75 742.8797,409.1719 Q743.325,409.5938 743.325,410.5781 L743.325,412.9219 Q743.325,413.9063 742.9031,414.3281 Q742.4813,414.75 741.825,414.75 Q741.2391,414.75 740.8641,414.4922 Q740.4891,414.2344 740.325,413.5547 Q740.2547,413.0859 739.9969,412.8281 Q739.5281,412.3359 738.6844,412.0547 Q737.8406,411.75 736.9969,411.75 Q735.9422,411.75 735.0516,412.1719 Q734.1844,412.5938 733.5047,413.5313 Q732.825,414.4688 732.825,415.7578 L732.825,417.1406 Q732.825,418.6875 734.0906,419.7188 Q735.3563,420.75 737.6063,420.75 Q738.9422,420.75 739.8797,420.4453 Q740.4188,420.2813 741.0281,419.7422 Q741.4266,419.4375 741.6375,419.3438 Q741.8484,419.25 742.1063,419.25 Q742.5984,419.25 742.95,419.6484 Q743.325,420.0234 743.325,420.5625 Q743.325,421.0781 742.8094,421.6875 Q742.0594,422.5781 740.8641,423.0703 Q739.2938,423.75 737.3719,423.75 Q735.1219,423.75 733.3172,422.8594 Q731.8641,422.1563 730.8328,420.6328 Q729.825,419.1094 729.825,417.3047 L729.825,415.6641 Q729.825,413.7891 730.7156,412.1484 Q731.6297,410.5078 733.2,409.6406 Q734.7938,408.75 736.575,408.75 Q737.6531,408.75 738.5906,409.125 Q739.5281,409.5 740.325,410.25 Z " fill="#000000"/><text fill="#000000" font-family="sans-serif" font-size="18" lengthAdjust="spacing" textLength="117" x="765.675" y="422.8652">ValidateName</text><line style="stroke:#A80036;stroke-width:2.25;" x1="683.25" x2="918.75" y1="439.5" y2="439.5"/><rect fill="none" height="9" style="stroke:#C82930;stroke-width:1.5;" width="9" x="693.75" y="451.5"/><text fill="#000000" font-family="sans-serif" font-size="16.5" lengthAdjust="spacing" text-decoration="underline" textLength="165" x="711.75" y="462.6284">ValidateName instance</text><line style="stroke:#A80036;stroke-width:2.25;" x1="683.25" x2="918.75" y1="472.2539" y2="472.2539"/><rect fill="#F24D5C" height="9" style="stroke:#C82930;stroke-width:1.5;" width="9" x="693.75" y="484.2539"/><text fill="#000000" font-family="sans-serif" font-size="16.5" lengthAdjust="spacing" textLength="181.5" x="711.75" y="495.3823">«Create» ValidateName()</text><ellipse cx="698.25" cy="509.5078" fill="#84BE84" rx="4.5" ry="4.5" style="stroke:#038048;stroke-width:1.5;"/><text fill="#000000" font-family="sans-serif" font-size="16.5" lengthAdjust="spacing" text-decoration="underline" textLength="199.5" x="711.75" y="516.1362">ValidateName getInstance()</text><!--MD5=[d87f476b7c4582066bb4852639d41063]
class org.example.util.validator.ValidateEmail--><rect codeLine="16" fill="#FEFECE" filter="url(#fht4lrrp9qz7g)" height="134.2617" id="org.example.util.validator.ValidateEmail" style="stroke:#A80036;stroke-width:2.25;" width="234" x="973.5" y="391.5"/><ellipse cx="1028.4" cy="415.5" fill="#ADD1B2" rx="16.5" ry="16.5" style="stroke:#A80036;stroke-width:1.5;"/><path d="M1031.4,410.25 Q1031.7047,409.5 1032.0563,409.125 Q1032.4078,408.75 1032.8063,408.75 Q1033.5094,408.75 1033.9547,409.1719 Q1034.4,409.5938 1034.4,410.5781 L1034.4,412.9219 Q1034.4,413.9063 1033.9781,414.3281 Q1033.5563,414.75 1032.9,414.75 Q1032.3141,414.75 1031.9391,414.4922 Q1031.5641,414.2344 1031.4,413.5547 Q1031.3297,413.0859 1031.0719,412.8281 Q1030.6031,412.3359 1029.7594,412.0547 Q1028.9156,411.75 1028.0719,411.75 Q1027.0172,411.75 1026.1266,412.1719 Q1025.2594,412.5938 1024.5797,413.5313 Q1023.9,414.4688 1023.9,415.7578 L1023.9,417.1406 Q1023.9,418.6875 1025.1656,419.7188 Q1026.4313,420.75 1028.6813,420.75 Q1030.0172,420.75 1030.9547,420.4453 Q1031.4938,420.2813 1032.1031,419.7422 Q1032.5016,419.4375 1032.7125,419.3438 Q1032.9234,419.25 1033.1813,419.25 Q1033.6734,419.25 1034.025,419.6484 Q1034.4,420.0234 1034.4,420.5625 Q1034.4,421.0781 1033.8844,421.6875 Q1033.1344,422.5781 1031.9391,423.0703 Q1030.3688,423.75 1028.4469,423.75 Q1026.1969,423.75 1024.3922,422.8594 Q1022.9391,422.1563 1021.9078,420.6328 Q1020.9,419.1094 1020.9,417.3047 L1020.9,415.6641 Q1020.9,413.7891 1021.7906,412.1484 Q1022.7047,410.5078 1024.275,409.6406 Q1025.8688,408.75 1027.65,408.75 Q1028.7281,408.75 1029.6656,409.125 Q1030.6031,409.5 1031.4,410.25 Z " fill="#000000"/><text fill="#000000" font-family="sans-serif" font-size="18" lengthAdjust="spacing" textLength="114" x="1056.6" y="422.8652">ValidateEmail</text><line style="stroke:#A80036;stroke-width:2.25;" x1="975" x2="1206" y1="439.5" y2="439.5"/><rect fill="none" height="9" style="stroke:#C82930;stroke-width:1.5;" width="9" x="985.5" y="451.5"/><text fill="#000000" font-family="sans-serif" font-size="16.5" lengthAdjust="spacing" text-decoration="underline" textLength="160.5" x="1003.5" y="462.6284">ValidateEmail instance</text><line style="stroke:#A80036;stroke-width:2.25;" x1="975" x2="1206" y1="472.2539" y2="472.2539"/><rect fill="#F24D5C" height="9" style="stroke:#C82930;stroke-width:1.5;" width="9" x="985.5" y="484.2539"/><text fill="#000000" font-family="sans-serif" font-size="16.5" lengthAdjust="spacing" textLength="177" x="1003.5" y="495.3823">«Create» ValidateEmail()</text><ellipse cx="990" cy="509.5078" fill="#84BE84" rx="4.5" ry="4.5" style="stroke:#038048;stroke-width:1.5;"/><text fill="#000000" font-family="sans-serif" font-size="16.5" lengthAdjust="spacing" text-decoration="underline" textLength="195" x="1003.5" y="516.1362">ValidateEmail getInstance()</text><!--MD5=[381ffa61d277817da4f93c50d6fb72f7]
class org.example.util.validator.ValidateGeneric--><rect codeLine="21" fill="#FEFECE" filter="url(#fht4lrrp9qz7g)" height="113.5078" id="org.example.util.validator.ValidateGeneric" style="stroke:#A80036;stroke-width:2.25;" width="325.5" x="1260.75" y="402"/><ellipse cx="1351.875" cy="426" fill="#ADD1B2" rx="16.5" ry="16.5" style="stroke:#A80036;stroke-width:1.5;"/><path d="M1354.875,420.75 Q1355.1797,420 1355.5313,419.625 Q1355.8828,419.25 1356.2813,419.25 Q1356.9844,419.25 1357.4297,419.6719 Q1357.875,420.0938 1357.875,421.0781 L1357.875,423.4219 Q1357.875,424.4063 1357.4531,424.8281 Q1357.0313,425.25 1356.375,425.25 Q1355.7891,425.25 1355.4141,424.9922 Q1355.0391,424.7344 1354.875,424.0547 Q1354.8047,423.5859 1354.5469,423.3281 Q1354.0781,422.8359 1353.2344,422.5547 Q1352.3906,422.25 1351.5469,422.25 Q1350.4922,422.25 1349.6016,422.6719 Q1348.7344,423.0938 1348.0547,424.0313 Q1347.375,424.9688 1347.375,426.2578 L1347.375,427.6406 Q1347.375,429.1875 1348.6406,430.2188 Q1349.9063,431.25 1352.1563,431.25 Q1353.4922,431.25 1354.4297,430.9453 Q1354.9688,430.7813 1355.5781,430.2422 Q1355.9766,429.9375 1356.1875,429.8438 Q1356.3984,429.75 1356.6563,429.75 Q1357.1484,429.75 1357.5,430.1484 Q1357.875,430.5234 1357.875,431.0625 Q1357.875,431.5781 1357.3594,432.1875 Q1356.6094,433.0781 1355.4141,433.5703 Q1353.8438,434.25 1351.9219,434.25 Q1349.6719,434.25 1347.8672,433.3594 Q1346.4141,432.6563 1345.3828,431.1328 Q1344.375,429.6094 1344.375,427.8047 L1344.375,426.1641 Q1344.375,424.2891 1345.2656,422.6484 Q1346.1797,421.0078 1347.75,420.1406 Q1349.3438,419.25 1351.125,419.25 Q1352.2031,419.25 1353.1406,419.625 Q1354.0781,420 1354.875,420.75 Z " fill="#000000"/><text fill="#000000" font-family="sans-serif" font-size="18" lengthAdjust="spacing" textLength="130.5" x="1382.625" y="433.3652">ValidateGeneric</text><line style="stroke:#A80036;stroke-width:2.25;" x1="1262.25" x2="1584.75" y1="450" y2="450"/><line style="stroke:#A80036;stroke-width:2.25;" x1="1262.25" x2="1584.75" y1="462" y2="462"/><ellipse cx="1277.25" cy="478.5" fill="#84BE84" rx="4.5" ry="4.5" style="stroke:#038048;stroke-width:1.5;"/><text fill="#000000" font-family="sans-serif" font-size="16.5" lengthAdjust="spacing" textLength="286.5" x="1290.75" y="485.1284">«Create» ValidateGeneric(String,String)</text><ellipse cx="1277.25" cy="499.2539" fill="#84BE84" rx="4.5" ry="4.5" style="stroke:#038048;stroke-width:1.5;"/><text fill="#000000" font-family="sans-serif" font-size="16.5" lengthAdjust="spacing" textLength="222" x="1290.75" y="505.8823">void setValidationRules(String)</text><!--MD5=[b1da76d608c312ff793ae89ba6cc6027]
class org.example.util.validator.ValidateNameProject--><rect codeLine="25" fill="#FEFECE" filter="url(#fht4lrrp9qz7g)" height="134.2617" id="org.example.util.validator.ValidateNameProject" style="stroke:#A80036;stroke-width:2.25;" width="288" x="1639.5" y="391.5"/><ellipse cx="1691.7" cy="415.5" fill="#ADD1B2" rx="16.5" ry="16.5" style="stroke:#A80036;stroke-width:1.5;"/><path d="M1694.7,410.25 Q1695.0047,409.5 1695.3562,409.125 Q1695.7078,408.75 1696.1062,408.75 Q1696.8094,408.75 1697.2547,409.1719 Q1697.7,409.5938 1697.7,410.5781 L1697.7,412.9219 Q1697.7,413.9063 1697.2781,414.3281 Q1696.8562,414.75 1696.2,414.75 Q1695.6141,414.75 1695.2391,414.4922 Q1694.8641,414.2344 1694.7,413.5547 Q1694.6297,413.0859 1694.3719,412.8281 Q1693.9031,412.3359 1693.0594,412.0547 Q1692.2156,411.75 1691.3719,411.75 Q1690.3172,411.75 1689.4266,412.1719 Q1688.5594,412.5938 1687.8797,413.5313 Q1687.2,414.4688 1687.2,415.7578 L1687.2,417.1406 Q1687.2,418.6875 1688.4656,419.7188 Q1689.7312,420.75 1691.9812,420.75 Q1693.3172,420.75 1694.2547,420.4453 Q1694.7937,420.2813 1695.4031,419.7422 Q1695.8016,419.4375 1696.0125,419.3438 Q1696.2234,419.25 1696.4812,419.25 Q1696.9734,419.25 1697.325,419.6484 Q1697.7,420.0234 1697.7,420.5625 Q1697.7,421.0781 1697.1844,421.6875 Q1696.4344,422.5781 1695.2391,423.0703 Q1693.6687,423.75 1691.7469,423.75 Q1689.4969,423.75 1687.6922,422.8594 Q1686.2391,422.1563 1685.2078,420.6328 Q1684.2,419.1094 1684.2,417.3047 L1684.2,415.6641 Q1684.2,413.7891 1685.0906,412.1484 Q1686.0047,410.5078 1687.575,409.6406 Q1689.1687,408.75 1690.95,408.75 Q1692.0281,408.75 1692.9656,409.125 Q1693.9031,409.5 1694.7,410.25 Z " fill="#000000"/><text fill="#000000" font-family="sans-serif" font-size="18" lengthAdjust="spacing" textLength="174" x="1719.3" y="422.8652">ValidateNameProject</text><line style="stroke:#A80036;stroke-width:2.25;" x1="1641" x2="1926" y1="439.5" y2="439.5"/><rect fill="none" height="9" style="stroke:#C82930;stroke-width:1.5;" width="9" x="1651.5" y="451.5"/><text fill="#000000" font-family="sans-serif" font-size="16.5" lengthAdjust="spacing" text-decoration="underline" textLength="214.5" x="1669.5" y="462.6284">ValidateNameProject instance</text><line style="stroke:#A80036;stroke-width:2.25;" x1="1641" x2="1926" y1="472.2539" y2="472.2539"/><rect fill="#F24D5C" height="9" style="stroke:#C82930;stroke-width:1.5;" width="9" x="1651.5" y="484.2539"/><text fill="#000000" font-family="sans-serif" font-size="16.5" lengthAdjust="spacing" textLength="231" x="1669.5" y="495.3823">«Create» ValidateNameProject()</text><ellipse cx="1656" cy="509.5078" fill="#84BE84" rx="4.5" ry="4.5" style="stroke:#038048;stroke-width:1.5;"/><text fill="#000000" font-family="sans-serif" font-size="16.5" lengthAdjust="spacing" text-decoration="underline" textLength="249" x="1669.5" y="516.1362">ValidateNameProject getInstance()</text><!--MD5=[225c6a0930a31bc310b7a0d693b6247f]
class org.example.util.validator.AbstractValidator--><rect codeLine="30" fill="#FEFECE" filter="url(#fht4lrrp9qz7g)" height="238.0313" id="org.example.util.validator.AbstractValidator" style="stroke:#A80036;stroke-width:2.25;" width="249" x="820.5" y="63"/><ellipse cx="870" cy="87" fill="#A9DCDF" rx="16.5" ry="16.5" style="stroke:#A80036;stroke-width:1.5;"/><path d="M872.625,89.25 L867.6797,89.25 L867.0234,90.75 L867.0234,90.75 L867.7266,90.75 L868.5,91.6875 L868.5,92.25 L868.5,92.8125 L867.7266,93.75 L867.0234,93.75 L864.1875,93.75 L863.2734,93.75 L862.5,92.8125 L862.5,92.25 L862.5,91.6875 L863.2734,90.75 L864.1875,90.75 L867.6563,81.75 L866.3438,81.75 L864.7734,81.75 L864,80.8125 L864,80.25 L864,79.6875 L864.7734,78.75 L866.3438,78.75 L871.8516,78.75 L875.8828,90.75 L876.7266,90.75 L876.7266,90.75 L877.5,91.6875 L877.5,92.25 L877.5,92.8125 L876.7266,93.75 L875.8828,93.75 L873.0469,93.75 L872.2734,93.75 L871.5,92.8125 L871.5,92.25 L871.5,91.6875 L872.2734,90.75 L873.0469,90.75 L873.0469,90.75 L872.625,89.25 Z M871.8047,86.25 L870,80.8828 L868.4531,86.25 L871.8047,86.25 Z " fill="#000000"/><text fill="#000000" font-family="sans-serif" font-size="18" font-style="italic" lengthAdjust="spacing" textLength="141" x="897" y="94.3652">AbstractValidator</text><line style="stroke:#A80036;stroke-width:2.25;" x1="822" x2="1068" y1="111" y2="111"/><polygon fill="none" points="837,120,843,126,837,132,831,126" style="stroke:#B38D22;stroke-width:1.5;"/><text fill="#000000" font-family="sans-serif" font-size="16.5" lengthAdjust="spacing" textLength="97.5" x="850.5" y="134.1284">String pattern</text><polygon fill="none" points="837,140.7539,843,146.7539,837,152.7539,831,146.7539" style="stroke:#B38D22;stroke-width:1.5;"/><text fill="#000000" font-family="sans-serif" font-size="16.5" lengthAdjust="spacing" textLength="150" x="850.5" y="154.8823">String nameValidator</text><polygon fill="none" points="837,161.5078,843,167.5078,837,173.5078,831,167.5078" style="stroke:#B38D22;stroke-width:1.5;"/><text fill="#000000" font-family="sans-serif" font-size="16.5" lengthAdjust="spacing" textLength="154.5" x="850.5" y="175.6362">String validationRules</text><line style="stroke:#A80036;stroke-width:2.25;" x1="822" x2="1068" y1="185.2617" y2="185.2617"/><ellipse cx="837" cy="201.7617" fill="#84BE84" rx="4.5" ry="4.5" style="stroke:#038048;stroke-width:1.5;"/><text fill="#000000" font-family="sans-serif" font-size="16.5" lengthAdjust="spacing" textLength="132" x="850.5" y="208.3901">String getPattern()</text><ellipse cx="837" cy="222.5156" fill="#84BE84" rx="4.5" ry="4.5" style="stroke:#038048;stroke-width:1.5;"/><text fill="#000000" font-family="sans-serif" font-size="16.5" lengthAdjust="spacing" textLength="186" x="850.5" y="229.144">String getValidatorName()</text><ellipse cx="837" cy="243.2695" fill="#84BE84" rx="4.5" ry="4.5" style="stroke:#038048;stroke-width:1.5;"/><text fill="#000000" font-family="sans-serif" font-size="16.5" lengthAdjust="spacing" textLength="210" x="850.5" y="249.8979">String getRulesOfValidation()</text><ellipse cx="837" cy="264.0234" fill="#84BE84" rx="4.5" ry="4.5" style="stroke:#038048;stroke-width:1.5;"/><text fill="#000000" font-family="sans-serif" font-size="16.5" lengthAdjust="spacing" textLength="163.5" x="850.5" y="270.6519">boolean isValid(String)</text><ellipse cx="837" cy="284.7773" fill="#84BE84" rx="4.5" ry="4.5" style="stroke:#038048;stroke-width:1.5;"/><text fill="#000000" font-family="sans-serif" font-size="16.5" lengthAdjust="spacing" textLength="114" x="850.5" y="291.4058">String request()</text><!--MD5=[b80e8e02db39103fb9ead690a8c7e219]
reverse link org.example.util.validator.AbstractValidator to org.example.util.validator.ValidateNumber--><path codeLine="42" d="M791.715,231.855 C666.585,272.01 485.625,332.07 330,391.5 C321.015,394.935 311.76,398.58 302.49,402.33 " fill="none" id="org.example.util.validator.AbstractValidator-backto-org.example.util.validator.ValidateNumber" style="stroke:#A80036;stroke-width:1.5;"/><polygon fill="none" points="788.535,221.85,820.305,222.72,794.925,241.86,788.535,221.85" style="stroke:#A80036;stroke-width:1.5;"/><!--MD5=[937f7d7cc8341e331384fd812e85b1bd]
reverse link org.example.util.validator.AbstractValidator to org.example.util.validator.ValidatePassword--><path codeLine="43" d="M794.085,274.95 C731.115,313.005 659.325,356.385 601.545,391.305 " fill="none" id="org.example.util.validator.AbstractValidator-backto-org.example.util.validator.ValidatePassword" style="stroke:#A80036;stroke-width:1.5;"/><polygon fill="none" points="788.91,265.815,820.02,259.275,799.77,283.785,788.91,265.815" style="stroke:#A80036;stroke-width:1.5;"/><!--MD5=[bd0080f7e6494e7540dacd8b8de0a21b]
reverse link org.example.util.validator.AbstractValidator to org.example.util.validator.ValidateName--><path codeLine="44" d="M868.8,328.605 C857.25,350.565 845.835,372.255 835.77,391.395 " fill="none" id="org.example.util.validator.AbstractValidator-backto-org.example.util.validator.ValidateName" style="stroke:#A80036;stroke-width:1.5;"/><polygon fill="none" points="859.62,323.49,882.885,301.83,878.205,333.27,859.62,323.49" style="stroke:#A80036;stroke-width:1.5;"/><!--MD5=[ad7ae92e4e518bf8e45781810b387897]
reverse link org.example.util.validator.AbstractValidator to org.example.util.validator.ValidateEmail--><path codeLine="45" d="M1021.995,328.605 C1033.665,350.565 1045.185,372.255 1055.37,391.395 " fill="none" id="org.example.util.validator.AbstractValidator-backto-org.example.util.validator.ValidateEmail" style="stroke:#A80036;stroke-width:1.5;"/><polygon fill="none" points="1012.575,333.255,1007.76,301.83,1031.115,323.4,1012.575,333.255" style="stroke:#A80036;stroke-width:1.5;"/><!--MD5=[c99e7c363d68ca7e2c78ef5a58f3cf6e]
reverse link org.example.util.validator.AbstractValidator to org.example.util.validator.ValidateGeneric--><path codeLine="46" d="M1096.59,270.48 C1171.77,313.485 1260.345,364.155 1326.315,401.895 " fill="none" id="org.example.util.validator.AbstractValidator-backto-org.example.util.validator.ValidateGeneric" style="stroke:#A80036;stroke-width:1.5;"/><polygon fill="none" points="1090.92,279.33,1070.1,255.315,1101.345,261.105,1090.92,279.33" style="stroke:#A80036;stroke-width:1.5;"/><!--MD5=[11c410f1e2f894bf451fdc13c71fda80]
reverse link org.example.util.validator.AbstractValidator to org.example.util.validator.ValidateNameProject--><path codeLine="47" d="M1098.855,228.465 C1234.755,268.71 1437.9,330.72 1612.5,391.5 C1621.215,394.53 1630.155,397.725 1639.14,401.01 " fill="none" id="org.example.util.validator.AbstractValidator-backto-org.example.util.validator.ValidateNameProject" style="stroke:#A80036;stroke-width:1.5;"/><polygon fill="none" points="1095.87,238.53,1070.07,219.96,1101.81,218.385,1095.87,238.53" style="stroke:#A80036;stroke-width:1.5;"/><!--MD5=[4f65168693b7840b9ffd92939cda44d5]
@startuml
class org.example.util.validator.ValidateNumber {
- {static} ValidateNumber instance
- <<Create>> ValidateNumber()
+ {static} ValidateNumber getInstance()
}
class org.example.util.validator.ValidatePassword {
- {static} ValidatePassword instance
- <<Create>> ValidatePassword()
+ {static} ValidatePassword getInstance()
}
class org.example.util.validator.ValidateName {
- {static} ValidateName instance
- <<Create>> ValidateName()
+ {static} ValidateName getInstance()
}
class org.example.util.validator.ValidateEmail {
- {static} ValidateEmail instance
- <<Create>> ValidateEmail()
+ {static} ValidateEmail getInstance()
}
class org.example.util.validator.ValidateGeneric {
+ <<Create>> ValidateGeneric(String,String)
+ void setValidationRules(String)
}
class org.example.util.validator.ValidateNameProject {
- {static} ValidateNameProject instance
- <<Create>> ValidateNameProject()
+ {static} ValidateNameProject getInstance()
}
abstract class org.example.util.validator.AbstractValidator {
# String pattern
# String nameValidator
# String validationRules
+ String getPattern()
+ String getValidatorName()
+ String getRulesOfValidation()
+ boolean isValid(String)
+ String request()
}


org.example.util.validator.AbstractValidator <|- - org.example.util.validator.ValidateNumber
org.example.util.validator.AbstractValidator <|- - org.example.util.validator.ValidatePassword
org.example.util.validator.AbstractValidator <|- - org.example.util.validator.ValidateName
org.example.util.validator.AbstractValidator <|- - org.example.util.validator.ValidateEmail
org.example.util.validator.AbstractValidator <|- - org.example.util.validator.ValidateGeneric
org.example.util.validator.AbstractValidator <|- - org.example.util.validator.ValidateNameProject
@enduml

PlantUML version 1.2021.7(Sun May 23 14:40:07 CEST 2021)
(GPL source distribution)
Java Runtime: OpenJDK Runtime Environment
JVM: Dynamic Code Evolution 64-Bit Server VM
Default Encoding: Cp1252
Language: it
Country: IT
--></g></svg>