<?xml version="1.0" encoding="UTF-8" standalone="no"?>
<!DOCTYPE svg PUBLIC "-//W3C//DTD SVG 1.1//EN"
 "http://www.w3.org/Graphics/SVG/1.1/DTD/svg11.dtd">
<!-- Generated by graphviz version 2.47.2 (20210527.0053)
 -->
<!-- Title: org.example.util.validator.AbstractValidator.request Pages: 1 -->
<svg width="678pt" height="274pt"
 viewBox="0.00 0.00 678.00 274.00" xmlns="http://www.w3.org/2000/svg" xmlns:xlink="http://www.w3.org/1999/xlink">
<g id="graph0" class="graph" transform="scale(1 1) rotate(0) translate(4 270)">
<title>org.example.util.validator.AbstractValidator.request</title>
<polygon fill="white" stroke="transparent" points="-4,4 -4,-270 674,-270 674,4 -4,4"/>
<!-- Node1 -->
<g id="node1" class="node">
<title>Node1</title>
<g id="a_node1"><a xlink:title="Richiesta tramite input da tastiera.">
<polygon fill="#bfbfbf" stroke="black" points="0,-115.5 0,-145.5 127,-145.5 127,-115.5 0,-115.5"/>
<text text-anchor="start" x="8" y="-133.5" font-family="Helvetica,sans-Serif" font-size="10.00">org.example.util.validator.</text>
<text text-anchor="middle" x="63.5" y="-122.5" font-family="Helvetica,sans-Serif" font-size="10.00">AbstractValidator.request</text>
</a>
</g>
</g>
<!-- Node2 -->
<g id="node2" class="node">
<title>Node2</title>
<g id="a_node2"><a xlink:href="../../d1/d6e/a00073_a965d757cfc90c0e7f9fca3165d025490.html#a965d757cfc90c0e7f9fca3165d025490" target="_top" xlink:title="Gets descriptor rules validation.">
<polygon fill="white" stroke="black" points="163,-235.5 163,-265.5 348,-265.5 348,-235.5 163,-235.5"/>
<text text-anchor="start" x="171" y="-253.5" font-family="Helvetica,sans-Serif" font-size="10.00">org.example.util.validator.</text>
<text text-anchor="middle" x="255.5" y="-242.5" font-family="Helvetica,sans-Serif" font-size="10.00">AbstractValidator.getRulesOfValidation</text>
</a>
</g>
</g>
<!-- Node1&#45;&gt;Node2 -->
<g id="edge1" class="edge">
<title>Node1&#45;&gt;Node2</title>
<path fill="none" stroke="midnightblue" d="M75.77,-145.62C92.46,-166.91 125.79,-205.46 163,-226.5 166.1,-228.25 169.32,-229.88 172.64,-231.39"/>
<polygon fill="midnightblue" stroke="midnightblue" points="171.59,-234.74 182.17,-235.34 174.27,-228.28 171.59,-234.74"/>
</g>
<!-- Node3 -->
<g id="node3" class="node">
<title>Node3</title>
<g id="a_node3"><a xlink:href="../../d1/d6e/a00073_acd92ade8ed1cc7bac0bf3c4add03b77f.html#acd92ade8ed1cc7bac0bf3c4add03b77f" target="_top" xlink:title="Restituisce una stringa con l&#39; elemento della validazione della classe.">
<polygon fill="white" stroke="black" points="169.5,-186.5 169.5,-216.5 341.5,-216.5 341.5,-186.5 169.5,-186.5"/>
<text text-anchor="start" x="177.5" y="-204.5" font-family="Helvetica,sans-Serif" font-size="10.00">org.example.util.validator.</text>
<text text-anchor="middle" x="255.5" y="-193.5" font-family="Helvetica,sans-Serif" font-size="10.00">AbstractValidator.getValidatorName</text>
</a>
</g>
</g>
<!-- Node1&#45;&gt;Node3 -->
<g id="edge2" class="edge">
<title>Node1&#45;&gt;Node3</title>
<path fill="none" stroke="midnightblue" d="M92.34,-145.52C111.74,-155.56 138.45,-168.51 163,-177.5 168.77,-179.61 174.81,-181.62 180.91,-183.51"/>
<polygon fill="midnightblue" stroke="midnightblue" points="179.94,-186.87 190.52,-186.37 181.94,-180.16 179.94,-186.87"/>
</g>
<!-- Node4 -->
<g id="node4" class="node">
<title>Node4</title>
<g id="a_node4"><a xlink:href="../../d1/d6e/a00073_a7753dd545c2ee8c31510c8c10728286a.html#a7753dd545c2ee8c31510c8c10728286a" target="_top" xlink:title="Prende in Input una stringa e controlla se corrisponde alla sintassi della Regex di validazione.">
<polygon fill="white" stroke="black" points="192,-137.5 192,-167.5 319,-167.5 319,-137.5 192,-137.5"/>
<text text-anchor="start" x="200" y="-155.5" font-family="Helvetica,sans-Serif" font-size="10.00">org.example.util.validator.</text>
<text text-anchor="middle" x="255.5" y="-144.5" font-family="Helvetica,sans-Serif" font-size="10.00">AbstractValidator.isValid</text>
</a>
</g>
</g>
<!-- Node1&#45;&gt;Node4 -->
<g id="edge3" class="edge">
<title>Node1&#45;&gt;Node4</title>
<path fill="none" stroke="midnightblue" d="M127.24,-137.76C144.67,-139.78 163.74,-141.99 181.7,-144.07"/>
<polygon fill="midnightblue" stroke="midnightblue" points="181.49,-147.57 191.83,-145.24 182.3,-140.62 181.49,-147.57"/>
</g>
<!-- Node5 -->
<g id="node5" class="node">
<title>Node5</title>
<g id="a_node5"><a xlink:href="../../d4/d31/a00069_a94c3d547ab0e1b7f8a17b756389aa450.html#a94c3d547ab0e1b7f8a17b756389aa450" target="_top" xlink:title="Stampa una stringa con lineSeparator() finale.">
<polygon fill="white" stroke="black" points="384,-71.5 384,-101.5 509,-101.5 509,-71.5 384,-71.5"/>
<text text-anchor="start" x="392" y="-89.5" font-family="Helvetica,sans-Serif" font-size="10.00">org.example.util.console.</text>
<text text-anchor="middle" x="446.5" y="-78.5" font-family="Helvetica,sans-Serif" font-size="10.00">Output.printnlLine</text>
</a>
</g>
</g>
<!-- Node1&#45;&gt;Node5 -->
<g id="edge4" class="edge">
<title>Node1&#45;&gt;Node5</title>
<path fill="none" stroke="midnightblue" d="M127.41,-123.23C195.1,-115.42 302.56,-103.01 373.56,-94.81"/>
<polygon fill="midnightblue" stroke="midnightblue" points="374.22,-98.25 383.76,-93.63 373.42,-91.3 374.22,-98.25"/>
</g>
<!-- Node7 -->
<g id="node7" class="node">
<title>Node7</title>
<g id="a_node7"><a xlink:href="../../d4/d31/a00069_aec5dd97874207af8ecf9680b111134e1.html#aec5dd97874207af8ecf9680b111134e1" target="_top" xlink:title="Stampa la stringa &quot;input non valido&quot;.">
<polygon fill="white" stroke="black" points="193,-49.5 193,-79.5 318,-79.5 318,-49.5 193,-49.5"/>
<text text-anchor="start" x="201" y="-67.5" font-family="Helvetica,sans-Serif" font-size="10.00">org.example.util.console.</text>
<text text-anchor="middle" x="255.5" y="-56.5" font-family="Helvetica,sans-Serif" font-size="10.00">Output.printNotValid</text>
</a>
</g>
</g>
<!-- Node1&#45;&gt;Node7 -->
<g id="edge6" class="edge">
<title>Node1&#45;&gt;Node7</title>
<path fill="none" stroke="midnightblue" d="M104.65,-115.48C122.47,-108.9 143.73,-101.18 163,-94.5 174.23,-90.61 186.28,-86.56 197.83,-82.75"/>
<polygon fill="midnightblue" stroke="midnightblue" points="198.97,-86.06 207.38,-79.61 196.79,-79.41 198.97,-86.06"/>
</g>
<!-- Node8 -->
<g id="node8" class="node">
<title>Node8</title>
<g id="a_node8"><a xlink:href="../../de/de1/a00065_a6b5dd9abfb2087bce26c178eb68105b5.html#a6b5dd9abfb2087bce26c178eb68105b5" target="_top" xlink:title="Previa stampa di un messaggio, preleva dalla console o dal System.in, se non dovesse esserci una cons...">
<polygon fill="white" stroke="black" points="193,-0.5 193,-30.5 318,-30.5 318,-0.5 193,-0.5"/>
<text text-anchor="start" x="201" y="-18.5" font-family="Helvetica,sans-Serif" font-size="10.00">org.example.util.console.</text>
<text text-anchor="middle" x="255.5" y="-7.5" font-family="Helvetica,sans-Serif" font-size="10.00">Input.readLine</text>
</a>
</g>
</g>
<!-- Node1&#45;&gt;Node8 -->
<g id="edge8" class="edge">
<title>Node1&#45;&gt;Node8</title>
<path fill="none" stroke="midnightblue" d="M76.88,-115.39C94.13,-95.33 127.29,-60.17 163,-40.5 169.35,-37 176.21,-33.97 183.24,-31.35"/>
<polygon fill="midnightblue" stroke="midnightblue" points="184.57,-34.59 192.87,-28.01 182.28,-27.97 184.57,-34.59"/>
</g>
<!-- Node6 -->
<g id="node6" class="node">
<title>Node6</title>
<g id="a_node6"><a xlink:href="../../d4/d31/a00069_adf62270ce5d7e0dc37915832a4c63300.html#adf62270ce5d7e0dc37915832a4c63300" target="_top" xlink:title="Stampa una stringa senza lineSeparator() finale.">
<polygon fill="white" stroke="black" points="545,-71.5 545,-101.5 670,-101.5 670,-71.5 545,-71.5"/>
<text text-anchor="start" x="553" y="-89.5" font-family="Helvetica,sans-Serif" font-size="10.00">org.example.util.console.</text>
<text text-anchor="middle" x="607.5" y="-78.5" font-family="Helvetica,sans-Serif" font-size="10.00">Output.printLine</text>
</a>
</g>
</g>
<!-- Node5&#45;&gt;Node6 -->
<g id="edge5" class="edge">
<title>Node5&#45;&gt;Node6</title>
<path fill="none" stroke="midnightblue" d="M509.43,-86.5C517.67,-86.5 526.18,-86.5 534.58,-86.5"/>
<polygon fill="midnightblue" stroke="midnightblue" points="534.74,-90 544.74,-86.5 534.74,-83 534.74,-90"/>
</g>
<!-- Node7&#45;&gt;Node5 -->
<g id="edge7" class="edge">
<title>Node7&#45;&gt;Node5</title>
<path fill="none" stroke="midnightblue" d="M318.12,-71.67C335.94,-73.75 355.53,-76.03 373.9,-78.17"/>
<polygon fill="midnightblue" stroke="midnightblue" points="373.62,-81.66 383.96,-79.34 374.43,-74.7 373.62,-81.66"/>
</g>
</g>
</svg>
