<?xml version="1.0" encoding="UTF-8" standalone="no"?>
<!DOCTYPE svg PUBLIC "-//W3C//DTD SVG 1.1//EN"
 "http://www.w3.org/Graphics/SVG/1.1/DTD/svg11.dtd">
<!-- Generated by graphviz version 2.47.2 (20210527.0053)
 -->
<!-- Title: org.example.util.validator.ValidateEmail.getInstance Pages: 1 -->
<svg width="526pt" height="137pt"
 viewBox="0.00 0.00 526.00 137.00" xmlns="http://www.w3.org/2000/svg" xmlns:xlink="http://www.w3.org/1999/xlink">
<g id="graph0" class="graph" transform="scale(1 1) rotate(0) translate(4 133)">
<title>org.example.util.validator.ValidateEmail.getInstance</title>
<polygon fill="white" stroke="transparent" points="-4,4 -4,-133 522,-133 522,4 -4,4"/>
<!-- Node1 -->
<g id="node1" class="node">
<title>Node1</title>
<g id="a_node1"><a xlink:title="Get instance validate email.">
<polygon fill="#bfbfbf" stroke="black" points="0,-49.5 0,-79.5 130,-79.5 130,-49.5 0,-49.5"/>
<text text-anchor="start" x="8" y="-67.5" font-family="Helvetica,sans-Serif" font-size="10.00">org.example.util.validator.</text>
<text text-anchor="middle" x="65" y="-56.5" font-family="Helvetica,sans-Serif" font-size="10.00">ValidateEmail.getInstance</text>
</a>
</g>
</g>
<!-- Node2 -->
<g id="node2" class="node">
<title>Node2</title>
<g id="a_node2"><a xlink:href="../../da/dec/a00080_ae8dba6bfba3679ad3c67065ac184c9d9.html#ae8dba6bfba3679ad3c67065ac184c9d9" target="_top" xlink:title="Instantiates a new Validate email.">
<polygon fill="white" stroke="black" points="166,-49.5 166,-79.5 306,-79.5 306,-49.5 166,-49.5"/>
<text text-anchor="start" x="174" y="-67.5" font-family="Helvetica,sans-Serif" font-size="10.00">org.example.util.validator.</text>
<text text-anchor="middle" x="236" y="-56.5" font-family="Helvetica,sans-Serif" font-size="10.00">ValidateEmail.ValidateEmail</text>
</a>
</g>
</g>
<!-- Node1&#45;&gt;Node2 -->
<g id="edge1" class="edge">
<title>Node1&#45;&gt;Node2</title>
<path fill="none" stroke="midnightblue" d="M130.37,-64.5C138.6,-64.5 147.09,-64.5 155.52,-64.5"/>
<polygon fill="midnightblue" stroke="midnightblue" points="155.74,-68 165.74,-64.5 155.74,-61 155.74,-68"/>
</g>
<!-- Node3 -->
<g id="node3" class="node">
<title>Node3</title>
<g id="a_node3"><a xlink:href="../../db/df8/a00076_a4e5c51528d1ceff3e97a2c833c66bd2e.html#a4e5c51528d1ceff3e97a2c833c66bd2e" target="_top" xlink:title="Sets name validator.">
<polygon fill="white" stroke="black" points="344,-98.5 344,-128.5 516,-128.5 516,-98.5 344,-98.5"/>
<text text-anchor="start" x="352" y="-116.5" font-family="Helvetica,sans-Serif" font-size="10.00">org.example.util.validator.</text>
<text text-anchor="middle" x="430" y="-105.5" font-family="Helvetica,sans-Serif" font-size="10.00">AbstractValidator.setNameValidator</text>
</a>
</g>
</g>
<!-- Node2&#45;&gt;Node3 -->
<g id="edge2" class="edge">
<title>Node2&#45;&gt;Node3</title>
<path fill="none" stroke="midnightblue" d="M295.91,-79.53C316.28,-84.73 339.27,-90.6 360.35,-95.98"/>
<polygon fill="midnightblue" stroke="midnightblue" points="359.65,-99.41 370.2,-98.49 361.38,-92.63 359.65,-99.41"/>
</g>
<!-- Node4 -->
<g id="node4" class="node">
<title>Node4</title>
<g id="a_node4"><a xlink:href="../../db/df8/a00076_ad9a4477ef4cec79579960fb1683ff1a6.html#ad9a4477ef4cec79579960fb1683ff1a6" target="_top" xlink:title="Sets pattern.">
<polygon fill="white" stroke="black" points="360,-49.5 360,-79.5 500,-79.5 500,-49.5 360,-49.5"/>
<text text-anchor="start" x="368" y="-67.5" font-family="Helvetica,sans-Serif" font-size="10.00">org.example.util.validator.</text>
<text text-anchor="middle" x="430" y="-56.5" font-family="Helvetica,sans-Serif" font-size="10.00">AbstractValidator.setPattern</text>
</a>
</g>
</g>
<!-- Node2&#45;&gt;Node4 -->
<g id="edge3" class="edge">
<title>Node2&#45;&gt;Node4</title>
<path fill="none" stroke="midnightblue" d="M306.05,-64.5C320.15,-64.5 335.09,-64.5 349.52,-64.5"/>
<polygon fill="midnightblue" stroke="midnightblue" points="349.92,-68 359.92,-64.5 349.92,-61 349.92,-68"/>
</g>
<!-- Node5 -->
<g id="node5" class="node">
<title>Node5</title>
<g id="a_node5"><a xlink:href="../../db/df8/a00076_a5cbc4c3ade49bfeff8b56acb5a872fbc.html#a5cbc4c3ade49bfeff8b56acb5a872fbc" target="_top" xlink:title="Sets validation rules.">
<polygon fill="white" stroke="black" points="342,-0.5 342,-30.5 518,-30.5 518,-0.5 342,-0.5"/>
<text text-anchor="start" x="350" y="-18.5" font-family="Helvetica,sans-Serif" font-size="10.00">org.example.util.validator.</text>
<text text-anchor="middle" x="430" y="-7.5" font-family="Helvetica,sans-Serif" font-size="10.00">AbstractValidator.setValidationRules</text>
</a>
</g>
</g>
<!-- Node2&#45;&gt;Node5 -->
<g id="edge4" class="edge">
<title>Node2&#45;&gt;Node5</title>
<path fill="none" stroke="midnightblue" d="M295.91,-49.47C316.28,-44.27 339.27,-38.4 360.35,-33.02"/>
<polygon fill="midnightblue" stroke="midnightblue" points="361.38,-36.37 370.2,-30.51 359.65,-29.59 361.38,-36.37"/>
</g>
</g>
</svg>
