<?xml version="1.0" encoding="UTF-8" standalone="no"?>
<!DOCTYPE svg PUBLIC "-//W3C//DTD SVG 1.1//EN"
 "http://www.w3.org/Graphics/SVG/1.1/DTD/svg11.dtd">
<!-- Generated by graphviz version 2.47.2 (20210527.0053)
 -->
<!-- Title: org.example.util.console.Input.readLine Pages: 1 -->
<svg width="296pt" height="88pt"
 viewBox="0.00 0.00 296.00 88.00" xmlns="http://www.w3.org/2000/svg" xmlns:xlink="http://www.w3.org/1999/xlink">
<g id="graph0" class="graph" transform="scale(1 1) rotate(0) translate(4 84)">
<title>org.example.util.console.Input.readLine</title>
<polygon fill="white" stroke="transparent" points="-4,4 -4,-84 292,-84 292,4 -4,4"/>
<!-- Node1 -->
<g id="node1" class="node">
<title>Node1</title>
<g id="a_node1"><a xlink:title="Previa stampa di un messaggio, preleva dalla console o dal System.in, se non dovesse esserci una cons...">
<polygon fill="#bfbfbf" stroke="black" points="163,-24.5 163,-54.5 288,-54.5 288,-24.5 163,-24.5"/>
<text text-anchor="start" x="171" y="-42.5" font-family="Helvetica,sans-Serif" font-size="10.00">org.example.util.console.</text>
<text text-anchor="middle" x="225.5" y="-31.5" font-family="Helvetica,sans-Serif" font-size="10.00">Input.readLine</text>
</a>
</g>
</g>
<!-- Node2 -->
<g id="node2" class="node">
<title>Node2</title>
<g id="a_node2"><a xlink:href="../../df/d03/a00062_a611c4b2c9a5764ce2be5eb120a73f6a8.html#a611c4b2c9a5764ce2be5eb120a73f6a8" target="_top" xlink:title="Previa stampa del messaggio : &quot;password: &quot; Permette l&#39; immissione da console di una password come avv...">
<polygon fill="white" stroke="black" points="1,-49.5 1,-79.5 126,-79.5 126,-49.5 1,-49.5"/>
<text text-anchor="start" x="9" y="-67.5" font-family="Helvetica,sans-Serif" font-size="10.00">org.example.util.console.</text>
<text text-anchor="middle" x="63.5" y="-56.5" font-family="Helvetica,sans-Serif" font-size="10.00">Input.readPassword</text>
</a>
</g>
</g>
<!-- Node1&#45;&gt;Node2 -->
<g id="edge1" class="edge">
<title>Node1&#45;&gt;Node2</title>
<path fill="none" stroke="midnightblue" d="M152.72,-50.71C143.87,-52.1 134.88,-53.5 126.2,-54.86"/>
<polygon fill="midnightblue" stroke="midnightblue" points="153.3,-54.17 162.64,-49.17 152.22,-47.25 153.3,-54.17"/>
</g>
<!-- Node3 -->
<g id="node3" class="node">
<title>Node3</title>
<g id="a_node3"><a xlink:href="../../d2/db1/a00070_a65bd335250cee3a9dc558f7d5dbca1bc.html#a65bd335250cee3a9dc558f7d5dbca1bc" target="_top" xlink:title="Richiesta tramite input da tastiera.">
<polygon fill="white" stroke="black" points="0,-0.5 0,-30.5 127,-30.5 127,-0.5 0,-0.5"/>
<text text-anchor="start" x="8" y="-18.5" font-family="Helvetica,sans-Serif" font-size="10.00">org.example.util.validator.</text>
<text text-anchor="middle" x="63.5" y="-7.5" font-family="Helvetica,sans-Serif" font-size="10.00">AbstractValidator.request</text>
</a>
</g>
</g>
<!-- Node1&#45;&gt;Node3 -->
<g id="edge2" class="edge">
<title>Node1&#45;&gt;Node3</title>
<path fill="none" stroke="midnightblue" d="M152.74,-28.74C144.24,-27.46 135.61,-26.17 127.25,-24.91"/>
<polygon fill="midnightblue" stroke="midnightblue" points="152.23,-32.2 162.64,-30.22 153.27,-25.28 152.23,-32.2"/>
</g>
</g>
</svg>
