<?xml version="1.0" encoding="UTF-8" standalone="no"?>
<!DOCTYPE svg PUBLIC "-//W3C//DTD SVG 1.1//EN"
 "http://www.w3.org/Graphics/SVG/1.1/DTD/svg11.dtd">
<!-- Generated by graphviz version 2.47.2 (20210527.0053)
 -->
<!-- Title: org.example.util.validator.AbstractValidator Pages: 1 -->
<svg width="1027pt" height="369pt"
 viewBox="0.00 0.00 1027.00 369.00" xmlns="http://www.w3.org/2000/svg" xmlns:xlink="http://www.w3.org/1999/xlink">
<g id="graph0" class="graph" transform="scale(1 1) rotate(0) translate(4 365)">
<title>org.example.util.validator.AbstractValidator</title>
<polygon fill="white" stroke="transparent" points="-4,4 -4,-365 1023,-365 1023,4 -4,4"/>
<!-- Node1 -->
<g id="node1" class="node">
<title>Node1</title>
<g id="a_node1"><a xlink:title="Questa interfaccia permette la validazione di una Stringa con l&#39; elemento oggetto della classe.">
<polygon fill="#bfbfbf" stroke="black" points="432,-138.5 432,-360.5 583,-360.5 583,-138.5 432,-138.5"/>
<text text-anchor="start" x="440" y="-348.5" font-family="Helvetica,sans-Serif" font-size="10.00">org.example.util.validator.</text>
<text text-anchor="middle" x="507.5" y="-337.5" font-family="Helvetica,sans-Serif" font-size="10.00">AbstractValidator</text>
<polyline fill="none" stroke="black" points="432,-330.5 583,-330.5 "/>
<text text-anchor="start" x="440" y="-318.5" font-family="Helvetica,sans-Serif" font-size="10.00">&#45; String nameValidator</text>
<text text-anchor="start" x="440" y="-307.5" font-family="Helvetica,sans-Serif" font-size="10.00">&#45; String pattern</text>
<text text-anchor="start" x="440" y="-296.5" font-family="Helvetica,sans-Serif" font-size="10.00">&#45; String validationRules</text>
<polyline fill="none" stroke="black" points="432,-289.5 583,-289.5 "/>
<text text-anchor="start" x="440" y="-277.5" font-family="Helvetica,sans-Serif" font-size="10.00">+ String getPattern()</text>
<text text-anchor="start" x="440" y="-266.5" font-family="Helvetica,sans-Serif" font-size="10.00">+ String getRulesOfValidation()</text>
<text text-anchor="start" x="440" y="-255.5" font-family="Helvetica,sans-Serif" font-size="10.00">+ String getValidationRules()</text>
<text text-anchor="start" x="440" y="-244.5" font-family="Helvetica,sans-Serif" font-size="10.00">+ String getValidatorName()</text>
<text text-anchor="start" x="440" y="-233.5" font-family="Helvetica,sans-Serif" font-size="10.00">+ boolean isValid(String</text>
<text text-anchor="start" x="440" y="-222.5" font-family="Helvetica,sans-Serif" font-size="10.00"> string)</text>
<text text-anchor="start" x="440" y="-211.5" font-family="Helvetica,sans-Serif" font-size="10.00">+ String request()</text>
<text text-anchor="start" x="440" y="-200.5" font-family="Helvetica,sans-Serif" font-size="10.00">+ void setNameValidator</text>
<text text-anchor="start" x="440" y="-189.5" font-family="Helvetica,sans-Serif" font-size="10.00">(String nameValidator)</text>
<text text-anchor="start" x="440" y="-178.5" font-family="Helvetica,sans-Serif" font-size="10.00">+ void setPattern(String</text>
<text text-anchor="start" x="440" y="-167.5" font-family="Helvetica,sans-Serif" font-size="10.00"> pattern)</text>
<text text-anchor="start" x="440" y="-156.5" font-family="Helvetica,sans-Serif" font-size="10.00">+ void setValidationRules</text>
<text text-anchor="start" x="440" y="-145.5" font-family="Helvetica,sans-Serif" font-size="10.00">(String validationRules)</text>
</a>
</g>
</g>
<!-- Node2 -->
<g id="node2" class="node">
<title>Node2</title>
<g id="a_node2"><a xlink:href="../../d1/d09/a00077.html" target="_top" xlink:title="Demonstration for PlantUML.">
<polygon fill="white" stroke="black" points="0,-0.5 0,-101.5 127,-101.5 127,-0.5 0,-0.5"/>
<text text-anchor="start" x="8" y="-89.5" font-family="Helvetica,sans-Serif" font-size="10.00">org.example.util.validator.</text>
<text text-anchor="middle" x="63.5" y="-78.5" font-family="Helvetica,sans-Serif" font-size="10.00">ValidateEmail</text>
<polyline fill="none" stroke="black" points="0,-71.5 127,-71.5 "/>
<text text-anchor="start" x="8" y="-59.5" font-family="Helvetica,sans-Serif" font-size="10.00">&#45; static ValidateEmail</text>
<text text-anchor="start" x="8" y="-48.5" font-family="Helvetica,sans-Serif" font-size="10.00"> instance</text>
<polyline fill="none" stroke="black" points="0,-41.5 127,-41.5 "/>
<text text-anchor="start" x="8" y="-29.5" font-family="Helvetica,sans-Serif" font-size="10.00">+ static ValidateEmail</text>
<text text-anchor="start" x="8" y="-18.5" font-family="Helvetica,sans-Serif" font-size="10.00"> getInstance()</text>
<text text-anchor="start" x="8" y="-7.5" font-family="Helvetica,sans-Serif" font-size="10.00">&#45; ValidateEmail()</text>
</a>
</g>
</g>
<!-- Node1&#45;&gt;Node2 -->
<g id="edge1" class="edge">
<title>Node1&#45;&gt;Node2</title>
<path fill="none" stroke="midnightblue" d="M422.16,-221.23C345.11,-195.14 229.71,-152.38 135.5,-102 132.68,-100.49 129.84,-98.9 127,-97.24"/>
<polygon fill="none" stroke="midnightblue" points="421.24,-224.61 431.83,-224.48 423.47,-217.97 421.24,-224.61"/>
</g>
<!-- Node3 -->
<g id="node3" class="node">
<title>Node3</title>
<g id="a_node3"><a xlink:href="../../d8/d53/a00081.html" target="_top" xlink:title="Questa classe permette di validare un oggetto.">
<polygon fill="white" stroke="black" points="145,-6 145,-96 272,-96 272,-6 145,-6"/>
<text text-anchor="start" x="153" y="-84" font-family="Helvetica,sans-Serif" font-size="10.00">org.example.util.validator.</text>
<text text-anchor="middle" x="208.5" y="-73" font-family="Helvetica,sans-Serif" font-size="10.00">ValidateGeneric</text>
<polyline fill="none" stroke="black" points="145,-66 272,-66 "/>
<text text-anchor="middle" x="208.5" y="-54" font-family="Helvetica,sans-Serif" font-size="10.00"> </text>
<polyline fill="none" stroke="black" points="145,-47 272,-47 "/>
<text text-anchor="start" x="153" y="-35" font-family="Helvetica,sans-Serif" font-size="10.00">+ ValidateGeneric(String</text>
<text text-anchor="start" x="153" y="-24" font-family="Helvetica,sans-Serif" font-size="10.00"> nameValidator, String</text>
<text text-anchor="start" x="153" y="-13" font-family="Helvetica,sans-Serif" font-size="10.00"> patternValidator)</text>
</a>
</g>
</g>
<!-- Node1&#45;&gt;Node3 -->
<g id="edge2" class="edge">
<title>Node1&#45;&gt;Node3</title>
<path fill="none" stroke="midnightblue" d="M423.47,-195.23C380.48,-167.73 327.45,-133.44 280.5,-102 277.59,-100.05 274.62,-98.05 271.63,-96.02"/>
<polygon fill="none" stroke="midnightblue" points="421.62,-198.2 431.93,-200.63 425.39,-192.3 421.62,-198.2"/>
</g>
<!-- Node4 -->
<g id="node4" class="node">
<title>Node4</title>
<g id="a_node4"><a xlink:href="../../df/d13/a00085.html" target="_top" xlink:title="The type Validate name.">
<polygon fill="white" stroke="black" points="290,-0.5 290,-101.5 417,-101.5 417,-0.5 290,-0.5"/>
<text text-anchor="start" x="298" y="-89.5" font-family="Helvetica,sans-Serif" font-size="10.00">org.example.util.validator.</text>
<text text-anchor="middle" x="353.5" y="-78.5" font-family="Helvetica,sans-Serif" font-size="10.00">ValidateName</text>
<polyline fill="none" stroke="black" points="290,-71.5 417,-71.5 "/>
<text text-anchor="start" x="298" y="-59.5" font-family="Helvetica,sans-Serif" font-size="10.00">&#45; static ValidateName</text>
<text text-anchor="start" x="298" y="-48.5" font-family="Helvetica,sans-Serif" font-size="10.00"> instance</text>
<polyline fill="none" stroke="black" points="290,-41.5 417,-41.5 "/>
<text text-anchor="start" x="298" y="-29.5" font-family="Helvetica,sans-Serif" font-size="10.00">+ static ValidateName</text>
<text text-anchor="start" x="298" y="-18.5" font-family="Helvetica,sans-Serif" font-size="10.00"> getInstance()</text>
<text text-anchor="start" x="298" y="-7.5" font-family="Helvetica,sans-Serif" font-size="10.00">&#45; ValidateName()</text>
</a>
</g>
</g>
<!-- Node1&#45;&gt;Node4 -->
<g id="edge3" class="edge">
<title>Node1&#45;&gt;Node4</title>
<path fill="none" stroke="midnightblue" d="M425.44,-143.79C413.91,-129.08 402.53,-114.56 392.34,-101.56"/>
<polygon fill="none" stroke="midnightblue" points="422.93,-146.27 431.85,-151.98 428.44,-141.95 422.93,-146.27"/>
</g>
<!-- Node5 -->
<g id="node5" class="node">
<title>Node5</title>
<g id="a_node5"><a xlink:href="../../db/dab/a00089.html" target="_top" xlink:title="The type Validate name project.">
<polygon fill="white" stroke="black" points="435.5,-0.5 435.5,-101.5 579.5,-101.5 579.5,-0.5 435.5,-0.5"/>
<text text-anchor="start" x="443.5" y="-89.5" font-family="Helvetica,sans-Serif" font-size="10.00">org.example.util.validator.</text>
<text text-anchor="middle" x="507.5" y="-78.5" font-family="Helvetica,sans-Serif" font-size="10.00">ValidateNameProject</text>
<polyline fill="none" stroke="black" points="435.5,-71.5 579.5,-71.5 "/>
<text text-anchor="start" x="443.5" y="-59.5" font-family="Helvetica,sans-Serif" font-size="10.00">&#45; static ValidateNameProject</text>
<text text-anchor="start" x="443.5" y="-48.5" font-family="Helvetica,sans-Serif" font-size="10.00"> instance</text>
<polyline fill="none" stroke="black" points="435.5,-41.5 579.5,-41.5 "/>
<text text-anchor="start" x="443.5" y="-29.5" font-family="Helvetica,sans-Serif" font-size="10.00">+ static ValidateNameProject</text>
<text text-anchor="start" x="443.5" y="-18.5" font-family="Helvetica,sans-Serif" font-size="10.00"> getInstance()</text>
<text text-anchor="start" x="443.5" y="-7.5" font-family="Helvetica,sans-Serif" font-size="10.00">&#45; ValidateNameProject()</text>
</a>
</g>
</g>
<!-- Node1&#45;&gt;Node5 -->
<g id="edge4" class="edge">
<title>Node1&#45;&gt;Node5</title>
<path fill="none" stroke="midnightblue" d="M507.5,-128.34C507.5,-119.09 507.5,-110.11 507.5,-101.76"/>
<polygon fill="none" stroke="midnightblue" points="504,-128.47 507.5,-138.47 511,-128.47 504,-128.47"/>
</g>
<!-- Node6 -->
<g id="node6" class="node">
<title>Node6</title>
<g id="a_node6"><a xlink:href="../../d4/d7d/a00093.html" target="_top" xlink:title="The type Validate number.">
<polygon fill="white" stroke="black" points="598,-0.5 598,-101.5 725,-101.5 725,-0.5 598,-0.5"/>
<text text-anchor="start" x="606" y="-89.5" font-family="Helvetica,sans-Serif" font-size="10.00">org.example.util.validator.</text>
<text text-anchor="middle" x="661.5" y="-78.5" font-family="Helvetica,sans-Serif" font-size="10.00">ValidateNumber</text>
<polyline fill="none" stroke="black" points="598,-71.5 725,-71.5 "/>
<text text-anchor="start" x="606" y="-59.5" font-family="Helvetica,sans-Serif" font-size="10.00">&#45; static ValidateNumber</text>
<text text-anchor="start" x="606" y="-48.5" font-family="Helvetica,sans-Serif" font-size="10.00"> instance</text>
<polyline fill="none" stroke="black" points="598,-41.5 725,-41.5 "/>
<text text-anchor="start" x="606" y="-29.5" font-family="Helvetica,sans-Serif" font-size="10.00">+ static ValidateNumber</text>
<text text-anchor="start" x="606" y="-18.5" font-family="Helvetica,sans-Serif" font-size="10.00"> getInstance()</text>
<text text-anchor="start" x="606" y="-7.5" font-family="Helvetica,sans-Serif" font-size="10.00">&#45; ValidateNumber()</text>
</a>
</g>
</g>
<!-- Node1&#45;&gt;Node6 -->
<g id="edge5" class="edge">
<title>Node1&#45;&gt;Node6</title>
<path fill="none" stroke="midnightblue" d="M589.56,-143.79C601.09,-129.08 612.47,-114.56 622.66,-101.56"/>
<polygon fill="none" stroke="midnightblue" points="586.56,-141.95 583.15,-151.98 592.07,-146.27 586.56,-141.95"/>
</g>
<!-- Node7 -->
<g id="node7" class="node">
<title>Node7</title>
<g id="a_node7"><a xlink:href="../../d1/d84/a00097.html" target="_top" xlink:title="The type Validate password.">
<polygon fill="white" stroke="black" points="743,-0.5 743,-101.5 874,-101.5 874,-0.5 743,-0.5"/>
<text text-anchor="start" x="751" y="-89.5" font-family="Helvetica,sans-Serif" font-size="10.00">org.example.util.validator.</text>
<text text-anchor="middle" x="808.5" y="-78.5" font-family="Helvetica,sans-Serif" font-size="10.00">ValidatePassword</text>
<polyline fill="none" stroke="black" points="743,-71.5 874,-71.5 "/>
<text text-anchor="start" x="751" y="-59.5" font-family="Helvetica,sans-Serif" font-size="10.00">&#45; static ValidatePassword</text>
<text text-anchor="start" x="751" y="-48.5" font-family="Helvetica,sans-Serif" font-size="10.00"> instance</text>
<polyline fill="none" stroke="black" points="743,-41.5 874,-41.5 "/>
<text text-anchor="start" x="751" y="-29.5" font-family="Helvetica,sans-Serif" font-size="10.00">+ static ValidatePassword</text>
<text text-anchor="start" x="751" y="-18.5" font-family="Helvetica,sans-Serif" font-size="10.00"> getInstance()</text>
<text text-anchor="start" x="751" y="-7.5" font-family="Helvetica,sans-Serif" font-size="10.00">&#45; ValidatePassword()</text>
</a>
</g>
</g>
<!-- Node1&#45;&gt;Node7 -->
<g id="edge6" class="edge">
<title>Node1&#45;&gt;Node7</title>
<path fill="none" stroke="midnightblue" d="M591.61,-194.82C634.51,-167.28 687.44,-133.08 734.5,-102 737.22,-100.21 739.99,-98.37 742.78,-96.51"/>
<polygon fill="none" stroke="midnightblue" points="589.69,-191.89 583.17,-200.23 593.47,-197.78 589.69,-191.89"/>
</g>
<!-- Node8 -->
<g id="node8" class="node">
<title>Node8</title>
<g id="a_node8"><a xlink:href="../../d4/d3a/a00101.html" target="_top" xlink:title="The type Validate version.">
<polygon fill="white" stroke="black" points="892,-0.5 892,-101.5 1019,-101.5 1019,-0.5 892,-0.5"/>
<text text-anchor="start" x="900" y="-89.5" font-family="Helvetica,sans-Serif" font-size="10.00">org.example.util.validator.</text>
<text text-anchor="middle" x="955.5" y="-78.5" font-family="Helvetica,sans-Serif" font-size="10.00">ValidateVersion</text>
<polyline fill="none" stroke="black" points="892,-71.5 1019,-71.5 "/>
<text text-anchor="start" x="900" y="-59.5" font-family="Helvetica,sans-Serif" font-size="10.00">&#45; static ValidateVersion</text>
<text text-anchor="start" x="900" y="-48.5" font-family="Helvetica,sans-Serif" font-size="10.00"> instance</text>
<polyline fill="none" stroke="black" points="892,-41.5 1019,-41.5 "/>
<text text-anchor="start" x="900" y="-29.5" font-family="Helvetica,sans-Serif" font-size="10.00">+ static ValidateVersion</text>
<text text-anchor="start" x="900" y="-18.5" font-family="Helvetica,sans-Serif" font-size="10.00"> getInstance()</text>
<text text-anchor="start" x="900" y="-7.5" font-family="Helvetica,sans-Serif" font-size="10.00">&#45; ValidateVersion()</text>
</a>
</g>
</g>
<!-- Node1&#45;&gt;Node8 -->
<g id="edge7" class="edge">
<title>Node1&#45;&gt;Node8</title>
<path fill="none" stroke="midnightblue" d="M593.05,-221.61C670.95,-195.64 788.02,-152.84 883.5,-102 886.19,-100.57 888.89,-99.06 891.6,-97.49"/>
<polygon fill="none" stroke="midnightblue" points="591.67,-218.38 583.28,-224.85 593.87,-225.03 591.67,-218.38"/>
</g>
</g>
</svg>
